<?xml version="1.0" standalone="no"?>
<!DOCTYPE svg PUBLIC "-//W3C//DTD SVG 20010904//EN"
 "http://www.w3.org/TR/2001/REC-SVG-20010904/DTD/svg10.dtd">
<svg version="1.0" xmlns="http://www.w3.org/2000/svg"
 width="700.000000pt" height="700.000000pt" viewBox="0 0 700.000000 700.000000"
 preserveAspectRatio="xMidYMid meet">
<metadata>
Created by potrace 1.11, written by Peter Selinger 2001-2013
</metadata>
<g transform="translate(0.000000,700.000000) scale(0.100000,-0.100000)"
fill="#000000" stroke="none">
<path d="M3245 6989 c-458 -35 -903 -156 -1305 -358 -359 -180 -620 -369 -911
-660 -283 -283 -473 -544 -643 -881 -196 -386 -298 -718 -357 -1156 -29 -214
-32 -610 -5 -824 27 -222 101 -579 126 -604 5 -5 135 28 312 79 167 48 573
165 903 261 664 191 730 208 913 229 112 13 918 40 1397 47 159 3 173 2 220
-20 63 -29 119 -83 153 -147 35 -69 37 -177 4 -250 -25 -54 -70 -106 -117
-134 -16 -10 -246 -76 -510 -146 -264 -71 -483 -131 -487 -134 -7 -6 839 -482
869 -489 7 -2 305 179 662 402 357 224 669 413 693 422 47 16 143 21 198 9 54
-11 147 -64 183 -104 48 -54 142 -212 129 -220 -5 -3 -357 -253 -781 -556
-424 -302 -801 -567 -838 -588 -143 -78 -359 -126 -512 -112 -155 14 -186 24
-1086 367 -655 250 -811 308 -827 308 -15 0 -897 -345 -906 -355 -8 -7 176
-215 307 -346 183 -183 350 -321 539 -446 459 -304 936 -481 1507 -560 181
-24 663 -25 849 0 415 56 765 161 1121 337 554 274 1011 672 1353 1178 314
464 502 963 579 1538 21 159 24 601 4 774 -81 726 -346 1353 -804 1901 -717
856 -1819 1322 -2932 1238z m-250 -1064 c33 -8 102 -36 154 -61 124 -61 247
-180 307 -296 21 -43 42 -78 45 -78 4 0 9 11 13 23 10 43 102 171 163 228 365
346 953 245 1178 -202 60 -118 80 -206 79 -349 -2 -181 -34 -317 -119 -497
-191 -406 -650 -835 -1227 -1147 l-87 -47 -108 62 c-648 372 -1124 861 -1274
1309 -109 326 -57 622 147 839 113 121 262 203 418 231 69 12 237 4 311 -15z"/>
</g>
</svg>
