<svg width="30" height="30" viewBox="0 0 512 512" xmlns="http://www.w3.org/2000/svg" xmlns:xlink="http://www.w3.org/1999/xlink"><radialGradient id="b" cx="104.96" cy="447.45" gradientUnits="userSpaceOnUse" r="564.65"><stop offset="0" stop-color="#fae100"/><stop offset=".05" stop-color="#fadc04"/><stop offset=".12" stop-color="#fbce0e"/><stop offset=".18" stop-color="#fcb720"/><stop offset=".25" stop-color="#fe9838"/><stop offset=".31" stop-color="#ff7950"/><stop offset=".49" stop-color="#ff1c74"/><stop offset="1" stop-color="#6c1cd1"/></radialGradient><linearGradient id="c" gradientUnits="userSpaceOnUse" x1="196.37" x2="-671.02" y1="222.46" y2="-265.45"><stop offset="0" stop-color="#a1b5d8" stop-opacity="0"/><stop offset=".31" stop-color="#90a2bd" stop-opacity=".31"/><stop offset=".76" stop-color="#7c8b9c" stop-opacity=".76"/><stop offset="1" stop-color="#748290"/></linearGradient><linearGradient id="d" gradientUnits="userSpaceOnUse" x1="256" x2="256" y1="451.97" y2="531.77"><stop offset="0" stop-color="#fae100" stop-opacity="0"/><stop offset=".31" stop-color="#fca800" stop-opacity=".31"/><stop offset=".63" stop-color="#fe7300" stop-opacity=".63"/><stop offset=".87" stop-color="#ff5200" stop-opacity=".87"/><stop offset="1" stop-color="#ff4500"/></linearGradient><linearGradient id="a"><stop offset="0" stop-color="#833ab4" stop-opacity="0"/><stop offset="1" stop-color="#833ab4"/></linearGradient><linearGradient id="e" gradientUnits="userSpaceOnUse" x1="226.87" x2="100.16" xlink:href="#a" y1="226.15" y2="99.44"/><linearGradient id="f" gradientUnits="userSpaceOnUse" x1="350.9" x2="287.66" xlink:href="#a" y1="468.29" y2="170.14"/><linearGradient id="g" gradientUnits="userSpaceOnUse" x1="374.97" x2="120.94" xlink:href="#a" y1="374.96" y2="120.94"/><linearGradient id="h" gradientUnits="userSpaceOnUse" x1="393.81" x2="309.81" xlink:href="#a" y1="221.26" y2="137.26"/><linearGradient id="i" gradientUnits="userSpaceOnUse" x1="357.66" x2="150.54" y1="155.05" y2="362.17"><stop offset="0" stop-color="#833ab4"/><stop offset=".09" stop-color="#9c3495"/><stop offset=".29" stop-color="#dc2546"/><stop offset=".39" stop-color="#fd1d1d"/><stop offset=".56" stop-color="#fc6831"/><stop offset=".69" stop-color="#fc9b40"/><stop offset=".75" stop-color="#fcaf45"/><stop offset=".78" stop-color="#fdb750"/><stop offset=".87" stop-color="#fecb6a"/><stop offset=".94" stop-color="#ffd87a"/><stop offset="1" stop-color="#ffdc80"/></linearGradient><path d="M503.23 91.58a93.22 93.22 0 00-82.8-82.81 1546.42 1546.42 0 00-328.85 0 93.23 93.23 0 00-82.81 82.8 1546.42 1546.42 0 000 328.85 93.23 93.23 0 0082.8 82.81 1546.46 1546.46 0 00328.85 0 93.22 93.22 0 0082.81-82.81 1546.42 1546.42 0 000-328.84zm0 0" fill="url(#b)"/><path d="M475.39 110.1a82.73 82.73 0 00-73.49-73.5 1372.79 1372.79 0 00-291.8 0 82.74 82.74 0 00-73.5 73.5 1372.75 1372.75 0 000 291.8 82.73 82.73 0 0073.5 73.49 1372.24 1372.24 0 00291.8 0 82.72 82.72 0 0073.49-73.5 1372.24 1372.24 0 000-291.8zm0 0" fill="url(#c)"/><path d="M7.67 409.8c.35 3.54.72 7.08 1.1 10.62a93.23 93.23 0 0082.81 82.81 1546.42 1546.42 0 00328.84 0 93.22 93.22 0 0082.81-82.8c.38-3.55.75-7.09 1.1-10.63zm0 0" fill="url(#d)"/><path d="M503.23 420.42a1547.77 1547.77 0 008.72-176.7L394.9 126.69c-14.62-16.7-35.97-27.11-61.07-28.01a2204.8 2204.8 0 00-154.98 0c-42.87 1.48-72.85 30.3-80.54 72.64-1.35 7.48-2.16 15.05-3.23 22.58v124.15c.59 4.02 1.46 8.03 1.73 12.08 1.72 25.75 12.3 47.82 29.25 62.74l119.1 119.1c58.44.4 116.89-2.5 175.25-8.74a93.22 93.22 0 0082.81-82.81zm0 0" fill="url(#e)"/><path d="M503.23 420.42a93.23 93.23 0 01-82.8 82.81 1548.66 1548.66 0 01-175.26 8.73L126.25 393.05c13.79 12.06 31.76 19.41 52.6 20.2 51.61 1.93 103.4 1.88 155 .02 46.67-1.68 80.44-36.23 81.9-82.9 1.55-49.55 1.55-99.24 0-148.8-.67-21.52-8.23-40.47-20.76-54.8l116.96 116.95c.46 58.92-2.44 117.86-8.72 176.7zm0 0" fill="url(#f)"/><path d="M316.41 200.56a82.01 82.01 0 10-115.86 115.86L390.3 506.14c10.04-.87 20.08-1.85 30.12-2.92a93.23 93.23 0 0082.81-82.81c1.07-10.04 2.05-20.08 2.92-30.12zm0 0" fill="url(#g)"/><path d="M511 311.15l-152.7-152.7a19.46 19.46 0 00-15.5-7.7 19.51 19.51 0 00-19.51 19.5c0 6.34 3.03 11.95 7.7 15.51l177.29 177.29c1.2-17.3 2.11-34.6 2.73-51.9zm0 0" fill="url(#h)"/><path d="M95.09 193.9c1.07-7.53 1.88-15.1 3.23-22.58 7.69-42.35 37.67-71.16 80.54-72.64a2204.8 2204.8 0 01154.98 0c46.66 1.68 80.45 36.22 81.9 82.9 1.56 49.55 1.56 99.23 0 148.8-1.45 46.66-35.23 81.2-81.9 82.89a2107.42 2107.42 0 01-154.98-.03c-46.66-1.75-78.92-36.38-82.04-83.12-.27-4.04-1.14-8.05-1.73-12.07V193.9zm160.95 191.7c23.62 0 47.26.72 70.85-.15 36.98-1.38 59.72-23.45 60.59-60.4 1.07-46.03 1.07-92.12 0-138.16-.87-36.94-23.63-59.53-60.6-60.31-46.91-1-93.88-.99-140.8 0-36.68.77-59.5 22.9-60.49 59.43a2579.1 2579.1 0 000 139.93c1 36.53 23.8 58.15 60.5 59.5 23.28.87 46.63.17 69.95.17zm0 0" fill="url(#i)"/><g fill="#fff"><path d="M95.09 193.9c1.07-7.53 1.88-15.1 3.23-22.58 7.69-42.35 37.67-71.16 80.54-72.64a2204.8 2204.8 0 01154.98 0c46.66 1.68 80.45 36.22 81.9 82.9 1.56 49.55 1.56 99.23 0 148.8-1.45 46.66-35.23 81.2-81.9 82.89a2107.42 2107.42 0 01-154.98-.03c-46.66-1.75-78.92-36.38-82.04-83.12-.27-4.04-1.14-8.05-1.73-12.07V193.9zm160.95 191.7c23.62 0 47.26.72 70.85-.15 36.98-1.38 59.72-23.45 60.59-60.4 1.07-46.03 1.07-92.12 0-138.16-.87-36.94-23.63-59.53-60.6-60.31-46.91-1-93.88-.99-140.8 0-36.68.77-59.5 22.9-60.49 59.43a2579.1 2579.1 0 000 139.93c1 36.53 23.8 58.15 60.5 59.5 23.28.87 46.63.17 69.95.17zm0 0"/><path d="M256 174a82 82 0 100 164 82 82 0 000-164zm0 135.77a53.77 53.77 0 110-107.54 53.77 53.77 0 010 107.54zm106.3-139.52a19.5 19.5 0 11-39.01 0 19.5 19.5 0 0139.01 0zm0 0"/></g></svg>