<svg height="512" width="512" xmlns="http://www.w3.org/2000/svg"><ellipse cx="256" cy="217.72" fill="#ffbecb" rx="76.42" ry="144.6"/><path d="M420.42 126.88a88 88 0 00-88 88l-.05.09c.02.91.05 1.83.05 2.75 0 60.08-30.29 113.08-76.42 144.6h25c77 0 139.42-62.43 139.42-139.43zm-240.84 90.84c0-.92.03-1.84.05-2.75l-.05-.09a88 88 0 00-88-88v96.01c0 77 62.43 139.43 139.43 139.43H256c-46.13-31.51-76.42-84.52-76.42-144.6z" fill="#ff9eb1"/><g fill="#ff7d97"><path d="M502 185.38a107.46 107.46 0 00-80.86 36.68l-.72.83c0 77-62.43 139.43-139.43 139.43h68.96c83.97 0 152.05-68.08 152.05-152.05v-24.89zM91.58 222.9l-.72-.84A107.46 107.46 0 0010 185.38v24.89c0 83.97 68.08 152.05 152.05 152.05h68.96c-77 0-139.43-62.43-139.43-139.43zm90.09 139.42A53.67 53.67 0 00128 415.98v22.9l18.49-10.77a119.32 119.32 0 0160.07-16.23A49.44 49.44 0 00256 362.32h-74.33z"/><path d="M330.33 362.32A53.67 53.67 0 01384 415.98v22.9l-18.49-10.77a119.32 119.32 0 00-60.07-16.23A49.44 49.44 0 01256 362.32h74.33z"/></g><path d="M256 290.88c2.63 0 5.21-1.07 7.07-2.93 1.86-1.86 2.93-4.44 2.93-7.07s-1.07-5.21-2.93-7.07c-1.86-1.86-4.44-2.93-7.07-2.93s-5.21 1.07-7.07 2.93-2.93 4.44-2.93 7.07 1.07 5.21 2.93 7.07a10.08 10.08 0 007.07 2.93zm0-40.5c2.63 0 5.21-1.07 7.07-2.93 1.86-1.86 2.93-4.44 2.93-7.07s-1.07-5.21-2.93-7.07c-1.86-1.86-4.44-2.93-7.07-2.93s-5.21 1.07-7.07 2.93-2.93 4.44-2.93 7.07c0 2.64 1.07 5.21 2.93 7.07a10.08 10.08 0 007.07 2.93zm0-40.5c2.63 0 5.21-1.07 7.07-2.93 1.86-1.86 2.93-4.44 2.93-7.07s-1.07-5.21-2.93-7.07c-1.86-1.86-4.44-2.93-7.07-2.93s-5.21 1.07-7.07 2.93-2.93 4.44-2.93 7.07c0 2.64 1.07 5.21 2.93 7.07a10.08 10.08 0 007.07 2.93z"/><path d="M502 175.38c-26.1 0-51.22 8.7-71.58 24.35v-72.85a10 10 0 00-10-10c-36.48 0-68.35 20.04-85.22 49.68a185.16 185.16 0 00-73.56-101.7 10 10 0 00-11.28 0 185.15 185.15 0 00-73.56 101.7c-16.87-29.63-48.74-49.68-85.22-49.68a10 10 0 00-10 10v72.84A117.46 117.46 0 0010 175.38a10 10 0 00-10 10v24.89c0 80.92 59.63 148.18 137.26 160.15A63.46 63.46 0 00118 415.98v22.9a10 10 0 0015.03 8.64l18.5-10.77a109.43 109.43 0 0155.03-14.87c15.9 0 30.85-6.2 42.08-17.46a60.06 60.06 0 007.36-8.95 60.12 60.12 0 007.35 8.95 59.04 59.04 0 0042.09 17.46c19.31 0 38.35 5.14 55.04 14.87l18.48 10.77a10 10 0 0015.04-8.64v-22.9c0-17.85-7.4-34-19.27-45.57A161.84 161.84 0 00426.7 353a10 10 0 00-9.49-17.6 142.19 142.19 0 01-61.38 16.77c43.5-25.28 73.14-71.88 74.52-125.38A97.45 97.45 0 01492 195.9v14.37c0 23-5.62 45.82-16.25 66.03a10 10 0 0017.7 9.31A162.43 162.43 0 00512 210.27v-24.89a10 10 0 00-10-10zM256 85.4a165.03 165.03 0 010 264.63 165.03 165.03 0 010-264.63zm-154.42 52.12c38.31 4.92 68 37.74 68 77.36h.05c-.02.95-.05 1.9-.05 2.84 0 51.35 21.3 99.86 58.06 134.55-69.81-1.79-126.06-59.14-126.06-129.38zM20 210.27V195.9a97.44 97.44 0 0161.63 30.9c1.38 53.5 31.04 100.1 74.54 125.38C80.57 349.1 20 286.63 20 210.28zm186.56 191.61c-22.85 0-45.36 6.08-65.1 17.59l-3.46 2.01v-5.5a43.72 43.72 0 0143.67-43.66h63.09a39.18 39.18 0 01-10.27 17.98 39.18 39.18 0 01-27.93 11.58zM374 421.48l-3.45-2.01a129.46 129.46 0 00-65.11-17.59 39.18 39.18 0 01-27.92-11.58 39.2 39.2 0 01-10.27-17.98h63.08A43.72 43.72 0 01374 415.98zm36.42-198.59c0 70.24-56.25 127.59-126.06 129.38a184.95 184.95 0 0058.06-134.55c0-.95-.03-1.9-.05-2.84h.05c0-39.62 29.69-72.44 68-77.36z"/><path d="M458 307.25a10.01 10.01 0 00-7.07 17.07 10.06 10.06 0 007.07 2.93c2.63 0 5.2-1.07 7.07-2.93a10.05 10.05 0 000-14.14 10.05 10.05 0 00-7.07-2.93z"/></svg>