<svg xmlns="http://www.w3.org/2000/svg" viewBox="0 0 72 72"><path d="M36 23c7.18 0 13 5.82 13 13s-5.82 13-13 13-13-5.82-13-13 5.82-13 13-13zm0 18a5 5 0 1 0-.001-10.001A5 5 0 0 0 36 41zm4-30v4a4 4 0 0 1-8 0v-4a4 4 0 0 1 8 0zm16.506 10.151-2.828 2.828a4 4 0 0 1-5.657-5.657l2.828-2.828a4 4 0 0 1 5.657 5.657zM61 40h-4a4 4 0 0 1 0-8h4a4 4 0 0 1 0 8zM50.849 56.506l-2.828-2.828a4 4 0 0 1 5.657-5.657l2.828 2.828a4 4 0 0 1-5.657 5.657zM32 61v-4a4 4 0 0 1 8 0v4a4 4 0 0 1-8 0zM15.494 50.849l2.828-2.828a4 4 0 0 1 5.657 5.657l-2.828 2.828a4 4 0 0 1-5.657-5.657zM11 32h4a4 4 0 0 1 0 8h-4a4 4 0 0 1 0-8zm10.151-16.506 2.828 2.828a4 4 0 0 1-5.657 5.657l-2.828-2.828a4 4 0 0 1 5.657-5.657z"/></svg>