<svg xmlns="http://www.w3.org/2000/svg"><symbol id="cat" viewBox="0 0 511.29 511.29" xml:space="preserve"><path d="M441.93 84.44a10.91 10.91 0 000 21.8 10.91 10.91 0 000-21.8zM444.95 465.68a79.93 79.93 0 00-16.26-7.47v-19.03a7.5 7.5 0 10-15 0v24.67a7.52 7.52 0 005.9 7.33c.09.02 9.12 2.06 17.85 7.49 7.84 4.87 12.82 10.78 14.87 17.62h-47.39a15.45 15.45 0 01-14.53-10.27l-43.72-123.58a7.5 7.5 0 00-14.16 4.94c3.15 9.2 4.75 19.46 4.75 30.52 0 21.9-10.8 37.28-33.03 47.02-19.15 8.4-41.31 9.75-49.95 9.94a7.5 7.5 0 00.16 15h59.02c11.73 0 20.65 3.13 26.5 9.32 5.02 5.32 7.05 12.1 7.86 17.11h-160.5c-12.35 0-23.52-4.91-33.2-14.6a7.5 7.5 0 00-4.77-2.18c-48.8-3.5-108.04-48.14-121.68-123.94a7.5 7.5 0 00-14.76 2.66c6.72 37.35 24.24 70.54 50.68 95.96 24.02 23.1 53.01 37.25 81.93 40.05 12.04 11.17 26.43 17.05 41.8 17.05h168.5a7.5 7.5 0 007.47-7c.06-.84 1.23-20.81-12.3-35.27-8-8.55-19.16-13.26-33.23-14.05 16.7-9.18 27.56-22.26 32.09-38.58l26.4 74.63a30.47 30.47 0 0028.67 20.27h55.96a7.5 7.5 0 007.5-7.5c0-15.55-8.1-28.73-23.43-38.11z"/><path d="M24.6 326.74c-2.17-58.67 23.31-92.47 45.07-110.5 27.73-22.96 57.8-28.8 59.06-29.03a8.67 8.67 0 0110.11 6.9 8.69 8.69 0 01-6.98 10.13c-1.14.23-28 5.73-52.13 26.16-31.65 26.83-43.73 66.07-35.9 116.62 6.67 43.08 30.21 73.58 69.98 90.64 4.27 1.84 9.37 4.71 13.57 1.16a7.5 7.5 0 002.52-7.17c-14.38-73.09 26.44-126.23 70.44-144.69 17.86-7.49 33.89-16.12 47.63-25.66a7.5 7.5 0 10-8.55-12.33c-12.89 8.95-27.99 17.07-44.88 24.16-64.99 27.25-87.11 92.93-81.41 147.69-30.72-15.35-49.03-40.92-54.48-76.1-6.97-45.04 3.38-79.65 30.78-102.87 20.97-17.77 45.12-22.85 45.27-22.88a23.69 23.69 0 0018.89-27.62 23.7 23.7 0 00-27.62-18.9c-1.42.28-35.19 6.83-65.86 32.24-24.37 20.18-52.9 57.83-50.5 122.6a7.5 7.5 0 0014.99-.56zM501.76 113.86c-.04-.51-.04-1.04-.11-1.55-.3-2.32-1.26-4.93-3.02-8.23-.04-.09-.1-.17-.15-.25-3.89-7.26-29.06-39.94-30.55-42.08-6.27-8.95-26.83-13.1-40.16-14.89V7.5c0-4.6-4.3-8.2-8.83-7.38-2.02.36-48.37 9.19-63.7 53.38-9.48 4.47-34.55 19.57-43.55 57.22a346.42 346.42 0 00-3.82 19.39c-5.32 29.9-11.95 67.13-46.18 100.58a7.5 7.5 0 1010.48 10.73 156.14 156.14 0 0030.46-41.31 205.14 205.14 0 00122.68 36.44c1.76 3.34 3.43 6.25 4.75 8.52l.86 1.5c1.4 2.44 33.53 60.36-15.54 120.53a7.5 7.5 0 00-1.69 4.74v37.34a7.5 7.5 0 1015 0v-34.7c20.4-25.87 30.07-54.36 28.75-84.7-1.21-27.84-11.46-47.07-13.5-50.65l-.9-1.56c-4.34-7.53-15.24-26.42-12.8-38.87l.04-.16c.24-1.17.6-2.28 1.09-3.31 2.43-5.08 8.5-8.42 18.05-9.92 21.83-3.42 37.75-15.96 46.03-36.26 3.33-8.15 6.9-27.96 6.3-35.19zM308.89 186.2a190.59 190.59 0 006.37-19.04c14.64 13.11 46.05 34 99.7 37 .25 5.88 1.72 11.86 3.72 17.49-26.54-.09-68.35-6-109.79-35.45zm138.2-15.7c-14.73 2.3-24.57 8.45-29.26 18.26l-.22.5c-36.4-1.74-61.32-12.43-76.02-21.33-11.78-7.13-18.99-14.23-22.23-17.81 1.27-6.1 2.3-11.92 3.28-17.38 1.19-6.7 2.32-13.01 3.64-18.53 8.97-37.52 36.37-47.65 37.49-48.05a7.5 7.5 0 004.75-4.96c8.22-27.58 31.38-39.32 44.25-43.83v36.17a7.5 7.5 0 006.75 7.46c16.34 1.63 33.57 6.1 36.12 9.36 1.72 2.46 4.56 6.09 8.16 10.69 4.55 5.81 13.32 17.02 18.63 25.09a14.1 14.1 0 003.64 19.29c-2.22 18.3-10.84 40.65-38.98 45.07z"/></symbol><symbol id="cat1" viewBox="0 0 511.29 511.29" xml:space="preserve"><path d="M448.25 177.9c46-7.2 46-55.92 46-64.04 0-8.11-26.15-38.78-32.46-47.8-6.32-9.02-41.52-12.52-41.52-12.52V7.5s-46.04 8.28-58.93 51.56c0 0-32.23 11.05-42.36 53.4-10.13 42.36-7.36 119.7-121.54 167.59-66.17 27.74-85.64 98.47-74.9 153.05-1.92-.73-3.84-1.5-5.77-2.33-37.23-15.98-59.28-44.54-65.53-84.9-7.4-47.8 3.82-84.72 33.34-109.74 22.75-19.28 48.54-24.5 48.73-24.53a16.16 16.16 0 00-5.96-31.77c-1.34.26-33.28 6.46-62.46 30.64C37.67 233 8.41 275.55 19.3 350.82c11.43 78.92 72.4 132.06 129.5 136.17 10.52 10.52 23.54 16.8 38.51 16.8h168.5s2.76-41.43-42.35-41.43h-59.02c20.38-.45 90.32-6.24 90.32-64.46 0-12.74-1.96-23.65-5.16-32.96l43.72 123.58a22.92 22.92 0 0021.6 15.27h55.96c0-31.32-39.68-39.94-39.68-39.94v-92c47.8-58.64 23.45-116.37 16.23-129-7.22-12.63-35.18-57.73 10.82-64.94zM339.48 364.58z" fill="#ffbb64"/><g fill="#ffad47"><path d="M313.46 462.36h-27c45.11 0 42.35 41.43 42.35 41.43h27s2.76-41.43-42.35-41.43zM421.2 463.85v-92c47.8-58.64 23.45-116.37 16.23-129-7.21-12.63-35.18-57.73 10.83-64.94 8.06-1.27 14.7-3.81 20.19-7.18-13.32 3.77-28.91 6.32-47.2 7.18-46.51 2.17-18.04 52.31-10.82 64.94 7.22 12.63 31.57 70.36-16.24 129v90.76c0 7.28 5.35 13.53 12.56 14.46 11.63 1.49 27.13 7.15 27.13 26.72h27c0-31.32-39.69-39.94-39.69-39.94z"/></g><path d="M429.83 228.85c-4.67-9.68-8.96-21.8-6.88-31.89-80.44-1.78-111.68-44.83-111.68-44.83-2.56 11.64-6.03 24.04-11.55 36.65 49.93 37.68 100.83 41.76 130.1 40.07z" fill="#ff3d43"/><path d="M422.95 196.96a209.12 209.12 0 01-27.2-2.33c-2.15 10.3 2.36 23.47 7.16 33.86 10.17.84 19.28.8 26.92.36-4.67-9.68-8.96-21.8-6.88-31.89z" fill="#d72e2e"/><path d="M441.93 84.44a10.91 10.91 0 000 21.8 10.91 10.91 0 000-21.8zM444.95 465.68a79.93 79.93 0 00-16.26-7.47v-19.03a7.5 7.5 0 10-15 0v24.67a7.52 7.52 0 005.9 7.33c.09.02 9.12 2.06 17.85 7.49 7.84 4.87 12.82 10.78 14.87 17.62h-47.39a15.45 15.45 0 01-14.53-10.27l-43.72-123.58a7.5 7.5 0 00-14.16 4.94c3.15 9.2 4.75 19.46 4.75 30.52 0 21.9-10.8 37.28-33.03 47.02-19.15 8.4-41.31 9.75-49.95 9.94a7.5 7.5 0 00.16 15h59.02c11.73 0 20.65 3.13 26.5 9.32 5.02 5.32 7.05 12.1 7.86 17.11h-160.5c-12.35 0-23.52-4.91-33.2-14.6a7.5 7.5 0 00-4.77-2.18c-48.8-3.5-108.04-48.14-121.68-123.94a7.5 7.5 0 00-14.76 2.66c6.72 37.35 24.24 70.54 50.68 95.96 24.02 23.1 53.01 37.25 81.93 40.05 12.04 11.17 26.43 17.05 41.8 17.05h168.5a7.5 7.5 0 007.47-7c.06-.84 1.23-20.81-12.3-35.27-8-8.55-19.16-13.26-33.23-14.05 16.7-9.18 27.56-22.26 32.09-38.58l26.4 74.63a30.47 30.47 0 0028.67 20.27h55.96a7.5 7.5 0 007.5-7.5c0-15.55-8.1-28.73-23.43-38.11z"/><path d="M24.6 326.74c-2.17-58.67 23.31-92.47 45.07-110.5 27.73-22.96 57.8-28.8 59.06-29.03a8.67 8.67 0 0110.11 6.9 8.69 8.69 0 01-6.98 10.13c-1.14.23-28 5.73-52.13 26.16-31.65 26.83-43.73 66.07-35.9 116.62 6.67 43.08 30.21 73.58 69.98 90.64 4.27 1.84 9.37 4.71 13.57 1.16a7.5 7.5 0 002.52-7.17c-14.38-73.09 26.44-126.23 70.44-144.69 17.86-7.49 33.89-16.12 47.63-25.66a7.5 7.5 0 10-8.55-12.33c-12.89 8.95-27.99 17.07-44.88 24.16-64.99 27.25-87.11 92.93-81.41 147.69-30.72-15.35-49.03-40.92-54.48-76.1-6.97-45.04 3.38-79.65 30.78-102.87 20.97-17.77 45.12-22.85 45.27-22.88a23.69 23.69 0 0018.89-27.62 23.7 23.7 0 00-27.62-18.9c-1.42.28-35.19 6.83-65.86 32.24-24.37 20.18-52.9 57.83-50.5 122.6a7.5 7.5 0 0014.99-.56zM501.76 113.86c-.04-.51-.04-1.04-.11-1.55-.3-2.32-1.26-4.93-3.02-8.23-.04-.09-.1-.17-.15-.25-3.89-7.26-29.06-39.94-30.55-42.08-6.27-8.95-26.83-13.1-40.16-14.89V7.5c0-4.6-4.3-8.2-8.83-7.38-2.02.36-48.37 9.19-63.7 53.38-9.48 4.47-34.55 19.57-43.55 57.22a346.42 346.42 0 00-3.82 19.39c-5.32 29.9-11.95 67.13-46.18 100.58a7.5 7.5 0 1010.48 10.73 156.14 156.14 0 0030.46-41.31 205.14 205.14 0 00122.68 36.44c1.76 3.34 3.43 6.25 4.75 8.52l.86 1.5c1.4 2.44 33.53 60.36-15.54 120.53a7.5 7.5 0 00-1.69 4.74v37.34a7.5 7.5 0 1015 0v-34.7c20.4-25.87 30.07-54.36 28.75-84.7-1.21-27.84-11.46-47.07-13.5-50.65l-.9-1.56c-4.34-7.53-15.24-26.42-12.8-38.87l.04-.16c.24-1.17.6-2.28 1.09-3.31 2.43-5.08 8.5-8.42 18.05-9.92 21.83-3.42 37.75-15.96 46.03-36.26 3.33-8.15 6.9-27.96 6.3-35.19zM308.89 186.2a190.59 190.59 0 006.37-19.04c14.64 13.11 46.05 34 99.7 37 .25 5.88 1.72 11.86 3.72 17.49-26.54-.09-68.35-6-109.79-35.45zm138.2-15.7c-14.73 2.3-24.57 8.45-29.26 18.26l-.22.5c-36.4-1.74-61.32-12.43-76.02-21.33-11.78-7.13-18.99-14.23-22.23-17.81 1.27-6.1 2.3-11.92 3.28-17.38 1.19-6.7 2.32-13.01 3.64-18.53 8.97-37.52 36.37-47.65 37.49-48.05a7.5 7.5 0 004.75-4.96c8.22-27.58 31.38-39.32 44.25-43.83v36.17a7.5 7.5 0 006.75 7.46c16.34 1.63 33.57 6.1 36.12 9.36 1.72 2.46 4.56 6.09 8.16 10.69 4.55 5.81 13.32 17.02 18.63 25.09a14.1 14.1 0 003.64 19.29c-2.22 18.3-10.84 40.65-38.98 45.07z"/></symbol><symbol id="bear" viewBox="0 0 128 128"><path d="M88.01 58.6a4.17 4.17 0 10-4.17-4.17 4.17 4.17 0 004.17 4.17zM39.99 58.6a4.17 4.17 0 10-4.17-4.17A4.17 4.17 0 0040 58.6z"/><path d="M128 22.07a22.07 22.07 0 00-42.9-7.3 69.75 69.75 0 00-42.2 0A22.06 22.06 0 109.07 39.9 54.02 54.02 0 000 69.75C0 101.87 28.71 128 64 128s64-26.13 64-58.25a54.03 54.03 0 00-9.08-29.86A21.9 21.9 0 00128 22.07zM105.92 3.5a18.55 18.55 0 0110.99 33.52 59.65 59.65 0 00-4.18-4.97A12.07 12.07 0 1094.38 18.5q-2.9-1.43-5.98-2.58A18.56 18.56 0 01105.92 3.5zm4.27 26a63.66 63.66 0 00-12.62-9.31 8.57 8.57 0 0116.93 1.89 8.55 8.55 0 01-4.3 7.42zM3.5 22.07a18.57 18.57 0 0136.09-6.15q-3.07 1.15-5.98 2.58a12.07 12.07 0 10-18.33 13.55 59.33 59.33 0 00-4.19 4.97A18.42 18.42 0 013.5 22.07zm14.3 7.43a8.57 8.57 0 014.28-16 8.65 8.65 0 018.35 6.69 63.66 63.66 0 00-12.62 9.31zm46.2 95c-33.36 0-60.5-24.56-60.5-54.75S30.64 15 64 15s60.5 24.56 60.5 54.75S97.36 124.5 64 124.5z"/><path d="M74.36 67.57a9.65 9.65 0 00-8.82-5.75h-3.08a9.65 9.65 0 00-8.82 5.75c-13.6 2.42-20.51 10.29-20.51 23.42 0 16.1 10.38 24.27 30.87 24.27S94.88 107.1 94.88 91c0-13.13-6.92-21-20.52-23.42zm-11.9-2.25h3.08A6.14 6.14 0 0169.2 76.4l-1.54 1.15a6.13 6.13 0 01-3.59 1.2H63.92a6.13 6.13 0 01-3.59-1.2L58.8 76.4a6.14 6.14 0 013.66-11.08zM64 111.76c-24.54 0-27.38-11.85-27.38-20.77 0-11.03 5.17-17.35 16.2-19.71v.18a9.69 9.69 0 003.9 7.75l1.54 1.14a9.7 9.7 0 003.29 1.59 15.25 15.25 0 01-15.78 9.1 1.75 1.75 0 10-.4 3.48 19.07 19.07 0 002.2.12A18.75 18.75 0 0064 84.9a18.75 18.75 0 0016.44 9.76 19.07 19.07 0 002.2-.13 1.75 1.75 0 10-.41-3.48 15.24 15.24 0 01-15.78-9.1 9.71 9.71 0 003.3-1.59l1.54-1.14a9.69 9.69 0 003.9-7.75l-.01-.18c11.03 2.36 16.2 8.68 16.2 19.71 0 8.92-2.84 20.77-27.38 20.77z"/></symbol><symbol id="bear1" viewBox="0 0 128 128"><ellipse cx="64" cy="69.75" rx="62.25" ry="56.5" fill="#f5f5f5"/><g fill="#3c3a41"><path d="M88.01 50.26a4.17 4.17 0 104.17 4.17A4.17 4.17 0 0088 50.26zM39.99 50.26a4.17 4.17 0 104.17 4.17 4.17 4.17 0 00-4.17-4.17z"/></g><path d="M11.5 39.41a61.55 61.55 0 0130.24-22.42A20.32 20.32 0 1011.5 39.4z" fill="#e0e0e0"/><path d="M18.1 31.6a61.79 61.79 0 0114.26-10.5 10.33 10.33 0 10-14.27 10.5z" fill="#3c3a41"/><path d="M116.5 39.41a61.55 61.55 0 00-30.24-22.42A20.32 20.32 0 11116.5 39.4z" fill="#e0e0e0"/><path d="M109.9 31.6a61.79 61.79 0 00-14.26-10.5 10.33 10.33 0 1114.27 10.5z" fill="#3c3a41"/><path d="M73.08 69.11a7.9 7.9 0 01-2.83 8.69l-1.54 1.14a7.9 7.9 0 01-9.42 0l-1.54-1.14a7.9 7.9 0 01-2.83-8.69C39.39 71.51 34.87 80.4 34.87 91c0 12.44 6.2 22.52 29.13 22.52S93.13 103.43 93.13 91c0-10.6-4.52-19.48-20.05-21.88z" fill="#e0e0e0"/><path d="M84.18 92.57a1.75 1.75 0 00-1.95-1.53 15.25 15.25 0 01-16.03-9.68l-.42-1.09a7.83 7.83 0 002.92-1.32l1.55-1.15a7.9 7.9 0 00-4.7-14.23h-3.1a7.9 7.9 0 00-4.7 14.23l1.54 1.14a7.83 7.83 0 002.92 1.33l-.41 1.09a15.26 15.26 0 01-16.03 9.68 1.75 1.75 0 10-.4 3.48 19.07 19.07 0 002.2.12A18.75 18.75 0 0064 84.9a18.75 18.75 0 0016.44 9.76 19.07 19.07 0 002.2-.13 1.75 1.75 0 001.54-1.95z" fill="#3c3a41"/><g><path d="M123.08 87.7a1.75 1.75 0 00-2.28.96 52.31 52.31 0 01-3.92 7.71 1.75 1.75 0 002.98 1.84 55.63 55.63 0 004.18-8.24 1.75 1.75 0 00-.96-2.28zM92.18 54.43A4.17 4.17 0 1088 58.6a4.17 4.17 0 004.17-4.17zM39.99 58.6a4.17 4.17 0 10-4.17-4.17A4.17 4.17 0 0040 58.6z"/><path d="M128 22.08a22.07 22.07 0 00-42.9-7.3 69.75 69.75 0 00-42.2 0 22.06 22.06 0 10-33.82 25.1A54.03 54.03 0 000 69.76C0 101.87 28.71 128 64 128a67.5 67.5 0 0043.06-15.15 1.75 1.75 0 10-2.23-2.7A64 64 0 0164 124.5c-33.36 0-60.5-24.56-60.5-54.75S30.64 15.01 64 15.01s60.5 24.55 60.5 54.74a1.75 1.75 0 003.5 0 54.03 54.03 0 00-9.08-29.86A21.9 21.9 0 00128 22.08zm-124.5 0a18.57 18.57 0 0136.09-6.16q-3.07 1.16-5.98 2.58a12.07 12.07 0 10-18.33 13.55 59.47 59.47 0 00-4.19 4.97A18.42 18.42 0 013.5 22.08zm14.3 7.42a8.57 8.57 0 014.28-16 8.65 8.65 0 018.35 6.69 63.7 63.7 0 00-12.62 9.31zm88.12-26a18.55 18.55 0 0110.99 33.52 59.65 59.65 0 00-4.18-4.97A12.07 12.07 0 1094.38 18.5q-2.9-1.43-5.98-2.58A18.56 18.56 0 01105.92 3.5zm-8.35 16.69a8.57 8.57 0 0116.93 1.89 8.55 8.55 0 01-4.3 7.42 63.66 63.66 0 00-12.63-9.31z"/><path d="M64 111.77c-24.54 0-27.38-11.86-27.38-20.77a1.75 1.75 0 00-3.5 0c0 16.1 10.4 24.27 30.88 24.27S94.88 107.1 94.88 91c0-13.14-6.92-21-20.52-23.42a9.65 9.65 0 00-8.82-5.76h-3.08a9.65 9.65 0 00-8.81 5.74c-8.42 1.5-14.32 5.08-17.54 10.68a1.75 1.75 0 103.03 1.74c2.54-4.41 7.04-7.26 13.68-8.7v.19a9.68 9.68 0 003.9 7.74l1.53 1.15a9.7 9.7 0 003.3 1.58 15.24 15.24 0 01-15.78 9.1 1.75 1.75 0 00-.4 3.48 19.07 19.07 0 002.2.13A18.75 18.75 0 0064 84.9a18.75 18.75 0 0016.44 9.76 19.07 19.07 0 002.2-.13 1.75 1.75 0 00-.41-3.48 15.24 15.24 0 01-15.78-9.1 9.7 9.7 0 003.3-1.58l1.54-1.15a9.69 9.69 0 003.9-7.74v-.19c11.03 2.37 16.2 8.68 16.2 19.72-.02 8.91-2.85 20.77-27.39 20.77zm5.2-35.37l-1.54 1.14a6.12 6.12 0 01-3.59 1.22H63.92a6.13 6.13 0 01-3.59-1.22L58.8 76.4a6.14 6.14 0 013.66-11.08h3.08A6.14 6.14 0 0169.2 76.4z"/></g></symbol><symbol id="bear2" viewBox="0 0 128 128"><ellipse cx="64" cy="69.8" fill="#f5f5f5" rx="62.3" ry="56.5"/><g fill="#3c3a41"><path d="M88 50.3c-2.3 0-4.2 1.9-4.2 4.2s1.9 4.2 4.2 4.2 4.2-1.9 4.2-4.2c0-2.4-1.9-4.2-4.2-4.2zM40 50.3c-2.3 0-4.2 1.9-4.2 4.2s1.9 4.2 4.2 4.2 4.2-1.9 4.2-4.2c0-2.4-1.9-4.2-4.2-4.2z"/></g><path d="M11.5 39.4A61.88 61.88 0 0141.7 17C38.9 6.1 27.9-.4 17 2.4S-.4 16.3 2.4 27.1c1.3 5.2 4.6 9.6 9.1 12.3z" fill="#e0e0e0"/><path d="M18.1 31.6c4.2-4.2 9-7.7 14.3-10.5-.5-5.7-5.6-9.8-11.3-9.3s-9.8 5.6-9.3 11.3c.4 3.7 2.8 7 6.3 8.5z" fill="#3c3a41"/><path d="M116.5 39.4A61.88 61.88 0 0086.3 17C89.1 6.1 100.1-.4 111 2.4s17.4 13.9 14.6 24.7c-1.3 5.2-4.6 9.6-9.1 12.3z" fill="#e0e0e0"/><path d="M109.9 31.6c-4.2-4.2-9-7.7-14.3-10.5.5-5.7 5.6-9.8 11.3-9.3s9.8 5.6 9.3 11.3c-.4 3.7-2.8 7-6.3 8.5z" fill="#3c3a41"/><path d="M73.1 69.1H54.9c-15.5 2.4-20 11.3-20 21.9 0 12.4 6.2 22.5 29.1 22.5S93.1 103.4 93.1 91c0-10.6-4.5-19.5-20-21.9z" fill="#e0e0e0"/><path d="M84.2 92.6c-.1-1-1-1.6-1.9-1.5-6.9.8-13.5-3.2-16-9.7l-.4-1.1c1.1-.2 2-.7 2.9-1.3l1.5-1.1c3.5-2.6 4.2-7.5 1.6-11-1.5-2-3.8-3.2-6.3-3.2h-3.1a7.85 7.85 0 00-4.7 14.2l1.5 1.1c.9.6 1.9 1.1 2.9 1.3l-.4 1.1c-2.5 6.5-9.1 10.5-16 9.7-1-.1-1.8.6-1.9 1.5s.6 1.8 1.5 1.9c.7.1 1.5.1 2.2.1 6.9 0 13.2-3.7 16.4-9.8 3.3 6 9.6 9.8 16.4 9.8.7 0 1.5 0 2.2-.1 1-.1 1.7-1 1.6-1.9z" fill="#3c3a41"/></symbol><symbol id="lotus" xmlns="http://www.w3.org/2000/svg" viewBox="0 0 512 512"><path id="XMLID_6_" d="M256 290.88c2.63 0 5.21-1.07 7.07-2.93 1.86-1.86 2.93-4.44 2.93-7.07s-1.07-5.21-2.93-7.07c-1.86-1.86-4.44-2.93-7.07-2.93s-5.21 1.07-7.07 2.93-2.93 4.44-2.93 7.07 1.07 5.21 2.93 7.07a10.08 10.08 0 007.07 2.93z" data-original="#000000" class="active-path" data-old_color="#000000" fill="#FFF"/><path id="XMLID_448_" d="M256 250.38c2.63 0 5.21-1.07 7.07-2.93 1.86-1.86 2.93-4.44 2.93-7.07s-1.07-5.21-2.93-7.07c-1.86-1.86-4.44-2.93-7.07-2.93s-5.21 1.07-7.07 2.93-2.93 4.44-2.93 7.07c0 2.64 1.07 5.21 2.93 7.07a10.08 10.08 0 007.07 2.93z" data-original="#000000" class="active-path" data-old_color="#000000" fill="#FFF"/><path id="XMLID_1039_" d="M256 209.88c2.63 0 5.21-1.07 7.07-2.93 1.86-1.86 2.93-4.44 2.93-7.07s-1.07-5.21-2.93-7.07c-1.86-1.86-4.44-2.93-7.07-2.93s-5.21 1.07-7.07 2.93-2.93 4.44-2.93 7.07c0 2.64 1.07 5.21 2.93 7.07a10.08 10.08 0 007.07 2.93z" data-original="#000000" class="active-path" data-old_color="#000000" fill="#FFF"/><path id="XMLID_1043_" d="M502 175.38c-26.1 0-51.22 8.7-71.58 24.35v-72.85a10 10 0 00-10-10c-36.48 0-68.35 20.04-85.22 49.68a185.16 185.16 0 00-73.56-101.7 10 10 0 00-11.28 0 185.15 185.15 0 00-73.56 101.7c-16.87-29.63-48.74-49.68-85.22-49.68a10 10 0 00-10 10v72.84A117.46 117.46 0 0010 175.38a10 10 0 00-10 10v24.89c0 80.92 59.63 148.18 137.26 160.15A63.46 63.46 0 00118 415.98v22.9a10 10 0 0015.03 8.64l18.5-10.77a109.43 109.43 0 0155.03-14.87c15.9 0 30.85-6.2 42.08-17.46a60.06 60.06 0 007.36-8.95 60.12 60.12 0 007.35 8.95 59.04 59.04 0 0042.09 17.46c19.31 0 38.35 5.14 55.04 14.87l18.48 10.77a10 10 0 0015.04-8.64v-22.9c0-17.85-7.4-34-19.27-45.57A161.84 161.84 0 00426.7 353a10 10 0 00-9.49-17.6 142.19 142.19 0 01-61.38 16.77c43.5-25.28 73.14-71.88 74.52-125.38A97.45 97.45 0 01492 195.9v14.37c0 23-5.62 45.82-16.25 66.03a10 10 0 0017.7 9.31A162.43 162.43 0 00512 210.27v-24.89a10 10 0 00-10-10zM256 85.4a165.03 165.03 0 010 264.63 165.03 165.03 0 010-264.63zm-154.42 52.12c38.31 4.92 68 37.74 68 77.36h.05c-.02.95-.05 1.9-.05 2.84 0 51.35 21.3 99.86 58.06 134.55-69.81-1.79-126.06-59.14-126.06-129.38zM20 210.27V195.9a97.44 97.44 0 0161.63 30.9c1.38 53.5 31.04 100.1 74.54 125.38C80.57 349.1 20 286.63 20 210.28zm186.56 191.61c-22.85 0-45.36 6.08-65.1 17.59l-3.46 2.01v-5.5a43.72 43.72 0 0143.67-43.66h63.09a39.18 39.18 0 01-10.27 17.98 39.18 39.18 0 01-27.93 11.58zM374 421.48l-3.45-2.01a129.46 129.46 0 00-65.11-17.59 39.18 39.18 0 01-27.92-11.58 39.2 39.2 0 01-10.27-17.98h63.08A43.72 43.72 0 01374 415.98zm36.42-198.59c0 70.24-56.25 127.59-126.06 129.38a184.95 184.95 0 0058.06-134.55c0-.95-.03-1.9-.05-2.84h.05c0-39.62 29.69-72.44 68-77.36z" data-original="#000000" class="active-path" data-old_color="#000000" fill="#FFF"/><path id="XMLID_1064_" d="M458 307.25a10.01 10.01 0 00-7.07 17.07 10.06 10.06 0 007.07 2.93c2.63 0 5.2-1.07 7.07-2.93a10.05 10.05 0 000-14.14 10.05 10.05 0 00-7.07-2.93z" data-original="#000000" class="active-path" data-old_color="#000000" fill="#FFF"/></symbol></svg>