<svg xmlns="http://www.w3.org/2000/svg" xmlns:xlink="http://www.w3.org/1999/xlink"><symbol id="cat" x="0px" y="0px" viewBox="0 0 511.292 511.292" style="enable-background:new 0 0 511.292 511.292;" xml:space="preserve"><g><path d="M441.926,84.441c-6.009,0-10.897,4.889-10.897,10.897c0,6.01,4.889,10.898,10.897,10.898   c6.009,0,10.898-4.889,10.898-10.898C452.824,89.329,447.935,84.441,441.926,84.441z" /><path d="M444.953,465.679c-6.017-3.682-12.018-6.061-16.259-7.47v-19.033c0-4.143-3.358-7.5-7.5-7.5c-4.143,0-7.5,3.357-7.5,7.5   v24.675c0,3.516,2.459,6.563,5.892,7.325c0.09,0.021,9.12,2.065,17.852,7.491c7.845,4.874,12.822,10.781,14.872,17.625h-47.387   c-6.519,0-12.36-4.13-14.535-10.275l-43.715-123.576c-1.376-3.893-5.641-5.939-9.538-4.582c-3.897,1.358-5.966,5.611-4.627,9.517   c3.155,9.197,4.755,19.469,4.755,30.528c0,21.898-10.805,37.278-33.031,47.02c-19.151,8.394-41.314,9.745-49.954,9.936   c-4.108,0.091-7.379,3.472-7.334,7.581c0.046,4.109,3.391,7.417,7.5,7.417h59.013c11.738,0,20.653,3.137,26.496,9.323   c5.027,5.323,7.058,12.099,7.867,17.111H187.312c-12.34,0-23.51-4.913-33.2-14.602c-1.274-1.274-2.966-2.048-4.765-2.177   c-48.806-3.512-108.036-48.143-121.674-123.941c-0.734-4.076-4.631-6.783-8.71-6.054c-4.077,0.734-6.787,4.634-6.054,8.71   c6.722,37.356,24.245,70.538,50.676,95.958c24.021,23.103,53.017,37.255,81.939,40.057c12.033,11.165,26.425,17.049,41.787,17.049   h168.5c3.948,0,7.221-3.062,7.483-7.001c0.057-0.843,1.221-20.811-12.306-35.27c-7.995-8.546-19.16-13.261-33.232-14.046   c16.71-9.18,27.561-22.263,32.092-38.58l26.398,74.624c4.291,12.126,15.814,20.272,28.676,20.272h55.961c4.143,0,7.5-3.358,7.5-7.5   C468.384,488.236,460.282,475.057,444.953,465.679z" /><path d="M24.6,326.742c-2.175-58.672,23.311-92.475,45.073-110.5c27.722-22.962,57.793-28.8,59.054-29.036   c4.711-0.883,9.236,2.225,10.117,6.911c0.88,4.693-2.222,9.229-6.988,10.123c-1.132,0.225-28.003,5.726-52.122,26.165   c-31.651,26.828-43.73,66.063-35.903,116.615c6.67,43.078,30.214,73.575,69.977,90.644c4.273,1.834,9.371,4.711,13.572,1.16   c2.079-1.758,3.043-4.504,2.518-7.175c-14.375-73.086,26.439-126.234,70.443-144.689c17.86-7.489,33.885-16.124,47.628-25.664   c3.403-2.361,4.247-7.035,1.885-10.438c-2.362-3.402-7.035-4.247-10.438-1.885c-12.884,8.942-27.982,17.068-44.876,24.154   c-64.987,27.252-87.115,92.937-81.414,147.692c-30.712-15.35-49.024-40.917-54.471-76.096   c-6.976-45.043,3.38-79.655,30.777-102.877c20.969-17.77,45.12-22.85,45.265-22.88c12.821-2.406,21.295-14.796,18.89-27.618   c-2.403-12.808-14.791-21.278-27.615-18.89c-1.423,0.267-35.188,6.819-65.866,32.229C35.744,224.868,7.209,262.519,9.61,327.297   c0.154,4.14,3.672,7.341,7.773,7.218C21.522,334.362,24.753,330.881,24.6,326.742z" /><path d="M501.759,113.863c-0.043-0.517-0.042-1.041-0.114-1.555c-0.299-2.318-1.254-4.924-3.013-8.226   c-0.047-0.088-0.102-0.17-0.152-0.255c-3.89-7.255-29.056-39.939-30.551-42.073c-6.271-8.958-26.833-13.104-40.164-14.893V7.497   c0-4.601-4.298-8.195-8.829-7.382c-2.014,0.363-48.37,9.195-63.688,53.385c-9.488,4.473-34.559,19.569-43.561,57.221   c-1.422,5.945-2.585,12.474-3.815,19.387c-5.325,29.91-11.953,67.134-46.182,100.587c-2.962,2.895-3.017,7.644-0.121,10.605   c2.892,2.961,7.642,3.017,10.605,0.121c13.712-13.401,23.399-27.427,30.453-41.312c44.197,30.503,88.549,36.539,116.658,36.539   c2.104,0,4.113-0.035,6.029-0.095c1.753,3.338,3.428,6.245,4.741,8.519l0.864,1.502c1.392,2.436,33.53,60.355-15.537,120.531   c-1.092,1.338-1.688,3.013-1.688,4.739v37.332c0,4.143,3.357,7.5,7.5,7.5c4.142,0,7.5-3.357,7.5-7.5v-34.697   c20.395-25.87,30.064-54.357,28.745-84.707c-1.21-27.836-11.455-47.067-13.497-50.64l-0.897-1.56   c-4.348-7.532-15.246-26.418-12.8-38.872c0.013-0.054,0.025-0.108,0.037-0.162c0.241-1.165,0.591-2.277,1.086-3.312   c2.427-5.078,8.5-8.413,18.05-9.911c21.836-3.425,37.755-15.963,46.035-36.26C498.78,140.9,502.354,121.093,501.759,113.863z    M308.891,186.198c2.56-6.461,4.643-12.835,6.373-19.038c14.639,13.111,46.045,33.996,99.705,36.995   c0.244,5.882,1.712,11.865,3.707,17.492C392.141,221.565,350.327,215.646,308.891,186.198z M447.093,170.497   c-14.729,2.311-24.572,8.454-29.259,18.262c-0.08,0.167-0.144,0.338-0.22,0.506c-36.411-1.748-61.32-12.434-76.02-21.332   c-11.783-7.133-18.991-14.229-22.234-17.814c1.267-6.094,2.307-11.922,3.279-17.382c1.191-6.689,2.316-13.009,3.636-18.527   c8.972-37.52,36.37-47.654,37.493-48.054c2.292-0.786,4.064-2.631,4.755-4.954c8.216-27.582,31.381-39.325,44.242-43.837v36.172   c0,3.853,2.922,7.08,6.757,7.463c16.342,1.632,33.564,6.1,36.118,9.356c1.723,2.461,4.564,6.094,8.163,10.694   c4.548,5.814,13.315,17.024,18.625,25.09c-1.473,2.252-2.318,4.918-2.318,7.723c0,4.798,2.34,9.012,5.964,11.565   C483.85,143.737,475.232,166.084,447.093,170.497z" /></g></symbol><symbol id="cat1" x="0px" y="0px" viewBox="0 0 511.292 511.292" style="enable-background:new 0 0 511.292 511.292;" xml:space="preserve"><g><path style="fill:#FFBB64;" d="M448.255,177.907c46.004-7.216,46.004-55.926,46.004-64.044c0-8.118-26.159-38.787-32.473-47.808   c-6.314-9.02-41.52-12.519-41.52-12.519V7.498c0,0-46.039,8.287-58.929,51.563c0,0-32.227,11.049-42.355,53.404   c-10.129,42.356-7.366,119.7-121.541,167.58c-66.166,27.747-85.637,98.476-74.902,153.051c-1.914-0.724-3.84-1.495-5.772-2.324   c-37.229-15.982-59.274-44.546-65.523-84.899c-7.401-47.798,3.816-84.722,33.341-109.746c22.741-19.273,48.532-24.491,48.73-24.529   c8.771-1.646,14.548-10.091,12.902-18.863c-1.646-8.771-10.09-14.538-18.863-12.902c-1.345,0.252-33.279,6.461-62.463,30.633   C37.67,233.011,8.407,275.551,19.304,350.818c11.426,78.921,72.387,132.067,129.505,136.176   c10.513,10.512,23.536,16.797,38.502,16.797h168.501c0,0,2.762-41.434-42.355-41.434h-59.013   c20.372-0.451,90.319-6.238,90.319-64.454c0-12.743-1.965-23.649-5.16-32.962l43.715,123.576   c3.238,9.155,11.895,15.274,21.605,15.274h55.961c0-31.32-39.689-39.941-39.689-39.941v-92.007   c47.808-58.632,23.453-116.362,16.237-128.991C430.215,230.225,402.252,185.123,448.255,177.907z M339.471,364.569L339.471,364.569   l0,0.002C339.472,364.57,339.472,364.57,339.471,364.569z" /><g><path style="fill:#FFAD47;" d="M313.457,462.357h-27c45.117,0,42.355,41.434,42.355,41.434h27    C355.812,503.792,358.574,462.357,313.457,462.357z" /><path style="fill:#FFAD47;" d="M421.194,463.851v-92.007c47.808-58.632,23.453-116.362,16.237-128.991    c-7.216-12.628-35.179-57.73,10.824-64.946c8.064-1.265,14.71-3.808,20.195-7.181c-13.319,3.773-28.914,6.325-47.195,7.181    c-46.515,2.178-18.041,52.318-10.824,64.946c7.216,12.629,31.571,70.359-16.237,128.991v90.766    c0,7.275,5.342,13.532,12.558,14.457c11.628,1.491,27.132,7.15,27.132,26.725h27C460.884,472.472,421.194,463.851,421.194,463.851    z" /></g><path style="fill:#FF3D43;" d="M429.828,228.846c-4.666-9.68-8.957-21.792-6.877-31.883l0,0   c-80.444-1.785-111.684-44.829-111.685-44.83c-2.555,11.637-6.024,24.04-11.548,36.643l0.001,0.001   C349.654,226.464,400.548,230.544,429.828,228.846z" /><path style="fill:#D72E2E;" d="M422.951,196.963c-9.787-0.217-18.84-1.049-27.203-2.336c-2.146,10.31,2.359,23.478,7.161,33.867   c10.172,0.836,19.285,0.795,26.919,0.352C425.162,219.167,420.871,207.055,422.951,196.963z" /><g><path d="M441.926,84.441c-6.009,0-10.897,4.889-10.897,10.897c0,6.01,4.889,10.898,10.897,10.898    c6.009,0,10.898-4.889,10.898-10.898C452.824,89.329,447.935,84.441,441.926,84.441z" /><path d="M444.953,465.679c-6.017-3.682-12.018-6.061-16.259-7.47v-19.033c0-4.143-3.358-7.5-7.5-7.5c-4.143,0-7.5,3.357-7.5,7.5    v24.675c0,3.516,2.459,6.563,5.892,7.325c0.09,0.021,9.12,2.065,17.852,7.491c7.845,4.874,12.822,10.781,14.872,17.625h-47.387    c-6.519,0-12.36-4.13-14.535-10.275l-43.715-123.576c-1.376-3.893-5.641-5.939-9.538-4.582c-3.897,1.358-5.966,5.611-4.627,9.517    c3.155,9.197,4.755,19.469,4.755,30.528c0,21.898-10.805,37.278-33.031,47.02c-19.151,8.394-41.314,9.745-49.954,9.936    c-4.108,0.091-7.379,3.472-7.334,7.581c0.046,4.109,3.391,7.417,7.5,7.417h59.013c11.738,0,20.653,3.137,26.496,9.323    c5.027,5.323,7.058,12.099,7.867,17.111H187.312c-12.34,0-23.51-4.913-33.2-14.602c-1.274-1.274-2.966-2.048-4.765-2.177    c-48.806-3.512-108.036-48.143-121.674-123.941c-0.734-4.076-4.631-6.783-8.71-6.054c-4.077,0.734-6.787,4.634-6.054,8.71    c6.722,37.356,24.245,70.538,50.676,95.958c24.021,23.103,53.017,37.255,81.939,40.057c12.033,11.165,26.425,17.049,41.787,17.049    h168.5c3.948,0,7.221-3.062,7.483-7.001c0.057-0.843,1.221-20.811-12.306-35.27c-7.995-8.546-19.16-13.261-33.232-14.046    c16.71-9.18,27.561-22.263,32.092-38.58l26.398,74.624c4.291,12.126,15.814,20.272,28.676,20.272h55.961    c4.143,0,7.5-3.358,7.5-7.5C468.384,488.236,460.282,475.057,444.953,465.679z" /><path d="M24.6,326.742c-2.175-58.672,23.311-92.475,45.073-110.5c27.722-22.962,57.793-28.8,59.054-29.036    c4.711-0.883,9.236,2.225,10.117,6.911c0.88,4.693-2.222,9.229-6.988,10.123c-1.132,0.225-28.003,5.726-52.122,26.165    c-31.651,26.828-43.73,66.063-35.903,116.615c6.67,43.078,30.214,73.575,69.977,90.644c4.273,1.834,9.371,4.711,13.572,1.16    c2.079-1.758,3.043-4.504,2.518-7.175c-14.375-73.086,26.439-126.234,70.443-144.689c17.86-7.489,33.885-16.124,47.628-25.664    c3.403-2.361,4.247-7.035,1.885-10.438c-2.362-3.402-7.035-4.247-10.438-1.885c-12.884,8.942-27.982,17.068-44.876,24.154    c-64.987,27.252-87.115,92.937-81.414,147.692c-30.712-15.35-49.024-40.917-54.471-76.096    c-6.976-45.043,3.38-79.655,30.777-102.877c20.969-17.77,45.12-22.85,45.265-22.88c12.821-2.406,21.295-14.796,18.89-27.618    c-2.403-12.808-14.791-21.278-27.615-18.89c-1.423,0.267-35.188,6.819-65.866,32.229C35.744,224.868,7.209,262.519,9.61,327.297    c0.154,4.14,3.672,7.341,7.773,7.218C21.522,334.362,24.753,330.881,24.6,326.742z" /><path d="M501.759,113.863c-0.043-0.517-0.042-1.041-0.114-1.555c-0.299-2.318-1.254-4.924-3.013-8.226    c-0.047-0.088-0.102-0.17-0.152-0.255c-3.89-7.255-29.056-39.939-30.551-42.073c-6.271-8.958-26.833-13.104-40.164-14.893V7.497    c0-4.601-4.298-8.195-8.829-7.382c-2.014,0.363-48.37,9.195-63.688,53.385c-9.488,4.473-34.559,19.569-43.561,57.221    c-1.422,5.945-2.585,12.474-3.815,19.387c-5.325,29.91-11.953,67.134-46.182,100.587c-2.962,2.895-3.017,7.644-0.121,10.605    c2.892,2.961,7.642,3.017,10.605,0.121c13.712-13.401,23.399-27.427,30.453-41.312c44.197,30.503,88.549,36.539,116.658,36.539    c2.104,0,4.113-0.035,6.029-0.095c1.753,3.338,3.428,6.245,4.741,8.519l0.864,1.502c1.392,2.436,33.53,60.355-15.537,120.531    c-1.092,1.338-1.688,3.013-1.688,4.739v37.332c0,4.143,3.357,7.5,7.5,7.5c4.142,0,7.5-3.357,7.5-7.5v-34.697    c20.395-25.87,30.064-54.357,28.745-84.707c-1.21-27.836-11.455-47.067-13.497-50.64l-0.897-1.56    c-4.348-7.532-15.246-26.418-12.8-38.872c0.013-0.054,0.025-0.108,0.037-0.162c0.241-1.165,0.591-2.277,1.086-3.312    c2.427-5.078,8.5-8.413,18.05-9.911c21.836-3.425,37.755-15.963,46.035-36.26C498.78,140.9,502.354,121.093,501.759,113.863z     M308.891,186.198c2.56-6.461,4.643-12.835,6.373-19.038c14.639,13.111,46.045,33.996,99.705,36.995    c0.244,5.882,1.712,11.865,3.707,17.492C392.141,221.565,350.327,215.646,308.891,186.198z M447.093,170.497    c-14.729,2.311-24.572,8.454-29.259,18.262c-0.08,0.167-0.144,0.338-0.22,0.506c-36.411-1.748-61.32-12.434-76.02-21.332    c-11.783-7.133-18.991-14.229-22.234-17.814c1.267-6.094,2.307-11.922,3.279-17.382c1.191-6.689,2.316-13.009,3.636-18.527    c8.972-37.52,36.37-47.654,37.493-48.054c2.292-0.786,4.064-2.631,4.755-4.954c8.216-27.582,31.381-39.325,44.242-43.837v36.172    c0,3.853,2.922,7.08,6.757,7.463c16.342,1.632,33.564,6.1,36.118,9.356c1.723,2.461,4.564,6.094,8.163,10.694    c4.548,5.814,13.315,17.024,18.625,25.09c-1.473,2.252-2.318,4.918-2.318,7.723c0,4.798,2.34,9.012,5.964,11.565    C483.85,143.737,475.232,166.084,447.093,170.497z" /></g></g></symbol><symbol id="bear" viewBox="0 0 128 128"><path d="M88.011,58.6a4.167,4.167,0,1,0-4.167-4.167A4.171,4.171,0,0,0,88.011,58.6Z" /><path d="M39.99,58.6a4.167,4.167,0,1,0-4.167-4.167A4.171,4.171,0,0,0,39.99,58.6Z" /><path d="M128,22.075a22.066,22.066,0,0,0-42.893-7.3,69.755,69.755,0,0,0-42.214,0A22.063,22.063,0,1,0,9.079,39.886,54.025,54.025,0,0,0,0,69.75C0,101.868,28.71,128,64,128s64-26.129,64-58.247a54.03,54.03,0,0,0-9.079-29.865A21.892,21.892,0,0,0,128,22.075ZM105.922,3.5A18.555,18.555,0,0,1,116.91,37.02a59.654,59.654,0,0,0-4.185-4.974A12.074,12.074,0,1,0,94.389,18.5q-2.9-1.429-5.975-2.583A18.557,18.557,0,0,1,105.922,3.5Zm4.271,26a63.665,63.665,0,0,0-12.625-9.313,8.571,8.571,0,0,1,16.932,1.89A8.555,8.555,0,0,1,110.193,29.5ZM3.5,22.075a18.566,18.566,0,0,1,36.086-6.158q-3.069,1.156-5.975,2.583A12.075,12.075,0,1,0,15.276,32.046a59.327,59.327,0,0,0-4.186,4.975A18.423,18.423,0,0,1,3.5,22.075ZM17.808,29.5a8.567,8.567,0,0,1,4.27-16,8.648,8.648,0,0,1,8.354,6.688A63.658,63.658,0,0,0,17.808,29.5ZM64,124.5C30.64,124.5,3.5,99.938,3.5,69.75S30.64,15,64,15s60.5,24.56,60.5,54.747S97.359,124.5,64,124.5Z" /><path d="M74.359,67.57a9.655,9.655,0,0,0-8.818-5.752H62.459a9.654,9.654,0,0,0-8.817,5.752c-13.6,2.421-20.517,10.286-20.517,23.424,0,16.1,10.388,24.27,30.875,24.27s30.875-8.166,30.875-24.27C94.875,77.856,87.961,69.991,74.359,67.57Zm-11.9-2.252h3.082A6.145,6.145,0,0,1,69.2,76.4l-1.541,1.145a6.133,6.133,0,0,1-3.585,1.213c-.027,0-.053,0-.079,0s-.05,0-.075,0a6.133,6.133,0,0,1-3.587-1.214L58.8,76.4a6.145,6.145,0,0,1,3.663-11.079ZM64,111.764c-24.537,0-27.375-11.854-27.375-20.77,0-11.036,5.164-17.35,16.2-19.717,0,.063-.009.124-.009.186a9.686,9.686,0,0,0,3.9,7.745l1.541,1.144a9.707,9.707,0,0,0,3.293,1.587,15.25,15.25,0,0,1-15.777,9.1,1.75,1.75,0,1,0-.409,3.476,19.07,19.07,0,0,0,2.2.129A18.751,18.751,0,0,0,64,84.885a18.75,18.75,0,0,0,16.438,9.76,19.07,19.07,0,0,0,2.2-.129,1.75,1.75,0,1,0-.409-3.476,15.245,15.245,0,0,1-15.778-9.1,9.712,9.712,0,0,0,3.294-1.587l1.541-1.144a9.69,9.69,0,0,0,3.9-7.745c0-.062-.008-.123-.009-.186,11.034,2.367,16.2,8.681,16.2,19.717C91.375,99.91,88.537,111.764,64,111.764Z" /></symbol><symbol id="bear1" viewBox="0 0 128 128"><g><g><ellipse cx="64" cy="69.75" rx="62.25" ry="56.497" fill="#f5f5f5" /><g><path d="M88.011,50.261a4.167,4.167,0,1,0,4.166,4.167A4.171,4.171,0,0,0,88.011,50.261Z" fill="#3c3a41" /><path d="M39.99,50.261a4.167,4.167,0,1,0,4.166,4.167A4.171,4.171,0,0,0,39.99,50.261Z" fill="#3c3a41" /></g><path d="M11.5,39.41A61.549,61.549,0,0,1,41.739,16.988,20.316,20.316,0,1,0,11.5,39.41Z" fill="#e0e0e0" /><path d="M18.091,31.6A61.788,61.788,0,0,1,32.357,21.1,10.327,10.327,0,1,0,18.091,31.6Z" fill="#3c3a41" /><path d="M116.5,39.41A61.549,61.549,0,0,0,86.261,16.988,20.316,20.316,0,1,1,116.5,39.41Z" fill="#e0e0e0" /><path d="M109.909,31.6A61.788,61.788,0,0,0,95.643,21.1a10.327,10.327,0,1,1,14.266,10.5Z" fill="#3c3a41" /><path d="M73.08,69.113A7.9,7.9,0,0,1,70.247,77.8l-1.541,1.144a7.893,7.893,0,0,1-9.412,0L57.753,77.8a7.9,7.9,0,0,1-2.833-8.689C39.393,71.506,34.875,80.392,34.875,90.994c0,12.437,6.2,22.52,29.125,22.52s29.125-10.083,29.125-22.52C93.125,80.392,88.607,71.506,73.08,69.113Z" fill="#e0e0e0" /><path d="M84.176,92.574a1.753,1.753,0,0,0-1.943-1.534A15.254,15.254,0,0,1,66.2,81.357l-.416-1.084a7.835,7.835,0,0,0,2.919-1.327L70.247,77.8a7.895,7.895,0,0,0-4.706-14.234H62.459A7.895,7.895,0,0,0,57.753,77.8l1.541,1.144a7.833,7.833,0,0,0,2.92,1.327L61.8,81.357a15.262,15.262,0,0,1-16.03,9.683,1.75,1.75,0,1,0-.409,3.476,19.07,19.07,0,0,0,2.2.129A18.751,18.751,0,0,0,64,84.885a18.75,18.75,0,0,0,16.438,9.76,19.07,19.07,0,0,0,2.2-.129A1.75,1.75,0,0,0,84.176,92.574Z" fill="#3c3a41" /></g><g><path d="M123.076,87.694a1.747,1.747,0,0,0-2.28.962,52.31,52.31,0,0,1-3.919,7.718,1.75,1.75,0,0,0,2.978,1.837,55.633,55.633,0,0,0,4.183-8.237A1.749,1.749,0,0,0,123.076,87.694Z" /><path d="M92.177,54.431A4.167,4.167,0,1,0,88.011,58.6,4.171,4.171,0,0,0,92.177,54.431Z" /><path d="M39.99,58.6a4.167,4.167,0,1,0-4.167-4.167A4.171,4.171,0,0,0,39.99,58.6Z" /><path d="M128,22.078a22.066,22.066,0,0,0-42.893-7.3,69.755,69.755,0,0,0-42.214,0A22.063,22.063,0,1,0,9.079,39.888,54.028,54.028,0,0,0,0,69.753C0,101.871,28.71,128,64,128a67.5,67.5,0,0,0,43.063-15.155,1.75,1.75,0,1,0-2.232-2.695A64,64,0,0,1,64,124.5c-33.36,0-60.5-24.56-60.5-54.747S30.64,15.006,64,15.006s60.5,24.559,60.5,54.747a1.75,1.75,0,0,0,3.5,0,54.028,54.028,0,0,0-9.079-29.865A21.893,21.893,0,0,0,128,22.078Zm-124.5,0A18.566,18.566,0,0,1,39.586,15.92q-3.069,1.156-5.975,2.583A12.075,12.075,0,1,0,15.276,32.049a59.474,59.474,0,0,0-4.186,4.974A18.418,18.418,0,0,1,3.5,22.078ZM17.808,29.5a8.567,8.567,0,0,1,4.27-16,8.648,8.648,0,0,1,8.354,6.688A63.693,63.693,0,0,0,17.808,29.5Zm88.114-26A18.555,18.555,0,0,1,116.91,37.023a59.654,59.654,0,0,0-4.185-4.974A12.074,12.074,0,1,0,94.389,18.5q-2.9-1.429-5.975-2.583A18.557,18.557,0,0,1,105.922,3.5ZM97.568,20.188a8.571,8.571,0,0,1,16.932,1.89,8.555,8.555,0,0,1-4.307,7.423A63.665,63.665,0,0,0,97.568,20.188Z" /><path d="M64,111.767c-24.537,0-27.375-11.854-27.375-20.77a1.75,1.75,0,0,0-3.5,0c0,16.1,10.388,24.27,30.875,24.27S94.875,107.1,94.875,91c0-13.138-6.914-21-20.516-23.424a9.655,9.655,0,0,0-8.818-5.752H62.459a9.653,9.653,0,0,0-8.811,5.739c-8.416,1.494-14.319,5.078-17.538,10.674a1.75,1.75,0,1,0,3.033,1.745c2.539-4.413,7.032-7.266,13.68-8.694,0,.061-.009.12-.009.181a9.684,9.684,0,0,0,3.9,7.744l1.541,1.145a9.707,9.707,0,0,0,3.293,1.587,15.245,15.245,0,0,1-15.777,9.1,1.75,1.75,0,0,0-.409,3.477,19.07,19.07,0,0,0,2.2.129A18.751,18.751,0,0,0,64,84.888a18.75,18.75,0,0,0,16.438,9.76,19.07,19.07,0,0,0,2.2-.129,1.75,1.75,0,0,0-.409-3.477,15.241,15.241,0,0,1-15.778-9.1,9.7,9.7,0,0,0,3.294-1.587L71.29,79.21a9.687,9.687,0,0,0,3.9-7.744c0-.062-.008-.123-.009-.186,11.034,2.367,16.2,8.681,16.2,19.717C91.375,99.913,88.537,111.767,64,111.767ZM69.2,76.4l-1.541,1.144a6.12,6.12,0,0,1-3.588,1.214c-.026,0-.051,0-.077,0s-.048,0-.071,0a6.128,6.128,0,0,1-3.59-1.214L58.8,76.4a6.145,6.145,0,0,1,3.663-11.079h3.082A6.145,6.145,0,0,1,69.2,76.4Z" /></g></g></symbol><symbol id="bear2" enable-background="new 0 0 128 128" viewBox="0 0 128 128"><ellipse cx="64" cy="69.8" fill="#f5f5f5" rx="62.3" ry="56.5" /><g fill="#3c3a41"><path d="m88 50.3c-2.3 0-4.2 1.9-4.2 4.2s1.9 4.2 4.2 4.2 4.2-1.9 4.2-4.2c0-2.4-1.9-4.2-4.2-4.2z" /><path d="m40 50.3c-2.3 0-4.2 1.9-4.2 4.2s1.9 4.2 4.2 4.2 4.2-1.9 4.2-4.2c0-2.4-1.9-4.2-4.2-4.2z" /></g><path d="m11.5 39.4c7.5-10.4 18.1-18.3 30.2-22.4-2.8-10.9-13.8-17.4-24.7-14.6s-17.4 13.9-14.6 24.7c1.3 5.2 4.6 9.6 9.1 12.3z" fill="#e0e0e0" /><path d="m18.1 31.6c4.2-4.2 9-7.7 14.3-10.5-.5-5.7-5.6-9.8-11.3-9.3s-9.8 5.6-9.3 11.3c.4 3.7 2.8 7 6.3 8.5z" fill="#3c3a41" /><path d="m116.5 39.4c-7.5-10.4-18.1-18.3-30.2-22.4 2.8-10.9 13.8-17.4 24.7-14.6s17.4 13.9 14.6 24.7c-1.3 5.2-4.6 9.6-9.1 12.3z" fill="#e0e0e0" /><path d="m109.9 31.6c-4.2-4.2-9-7.7-14.3-10.5.5-5.7 5.6-9.8 11.3-9.3s9.8 5.6 9.3 11.3c-.4 3.7-2.8 7-6.3 8.5z" fill="#3c3a41" /><path d="m73.1 69.1c-7.2 0-12.8 0-18.2 0-15.5 2.4-20 11.3-20 21.9 0 12.4 6.2 22.5 29.1 22.5s29.1-10.1 29.1-22.5c0-10.6-4.5-19.5-20-21.9z" fill="#e0e0e0" /><path d="m84.2 92.6c-.1-1-1-1.6-1.9-1.5-6.9.8-13.5-3.2-16-9.7l-.4-1.1c1.1-.2 2-.7 2.9-1.3l1.5-1.1c3.5-2.6 4.2-7.5 1.6-11-1.5-2-3.8-3.2-6.3-3.2h-3.1c-4.4 0-7.9 3.5-7.9 7.9 0 2.5 1.2 4.8 3.2 6.3l1.5 1.1c.9.6 1.9 1.1 2.9 1.3l-.4 1.1c-2.5 6.5-9.1 10.5-16 9.7-1-.1-1.8.6-1.9 1.5s.6 1.8 1.5 1.9c.7.1 1.5.1 2.2.1 6.9 0 13.2-3.7 16.4-9.8 3.3 6 9.6 9.8 16.4 9.8.7 0 1.5 0 2.2-.1 1-.1 1.7-1 1.6-1.9z" fill="#3c3a41" /></symbol><symbol id="lotus" xmlns="http://www.w3.org/2000/svg" viewBox="0 0 512 512"><path id="XMLID_6_" d="M256 290.88c2.63 0 5.21-1.07 7.07-2.93 1.86-1.86 2.93-4.44 2.93-7.07s-1.07-5.21-2.93-7.07c-1.86-1.86-4.44-2.93-7.07-2.93s-5.21 1.07-7.07 2.93-2.93 4.44-2.93 7.07 1.07 5.21 2.93 7.07a10.08 10.08 0 007.07 2.93z" data-original="#000000" class="active-path" data-old_color="#000000" fill="#FFF" /><path id="XMLID_448_" d="M256 250.38c2.63 0 5.21-1.07 7.07-2.93 1.86-1.86 2.93-4.44 2.93-7.07s-1.07-5.21-2.93-7.07c-1.86-1.86-4.44-2.93-7.07-2.93s-5.21 1.07-7.07 2.93-2.93 4.44-2.93 7.07c0 2.64 1.07 5.21 2.93 7.07a10.08 10.08 0 007.07 2.93z" data-original="#000000" class="active-path" data-old_color="#000000" fill="#FFF" /><path id="XMLID_1039_" d="M256 209.88c2.63 0 5.21-1.07 7.07-2.93 1.86-1.86 2.93-4.44 2.93-7.07s-1.07-5.21-2.93-7.07c-1.86-1.86-4.44-2.93-7.07-2.93s-5.21 1.07-7.07 2.93-2.93 4.44-2.93 7.07c0 2.64 1.07 5.21 2.93 7.07a10.08 10.08 0 007.07 2.93z" data-original="#000000" class="active-path" data-old_color="#000000" fill="#FFF" /><path id="XMLID_1043_" d="M502 175.38c-26.1 0-51.22 8.7-71.58 24.35v-72.85a10 10 0 00-10-10c-36.48 0-68.35 20.04-85.22 49.68a185.16 185.16 0 00-73.56-101.7 10 10 0 00-11.28 0 185.15 185.15 0 00-73.56 101.7c-16.87-29.63-48.74-49.68-85.22-49.68a10 10 0 00-10 10v72.84A117.46 117.46 0 0010 175.38a10 10 0 00-10 10v24.89c0 80.92 59.63 148.18 137.26 160.15A63.46 63.46 0 00118 415.98v22.9a10 10 0 0015.03 8.64l18.5-10.77a109.43 109.43 0 0155.03-14.87c15.9 0 30.85-6.2 42.08-17.46a60.06 60.06 0 007.36-8.95 60.12 60.12 0 007.35 8.95 59.04 59.04 0 0042.09 17.46c19.31 0 38.35 5.14 55.04 14.87l18.48 10.77a10 10 0 0015.04-8.64v-22.9c0-17.85-7.4-34-19.27-45.57A161.84 161.84 0 00426.7 353a10 10 0 00-9.49-17.6 142.19 142.19 0 01-61.38 16.77c43.5-25.28 73.14-71.88 74.52-125.38A97.45 97.45 0 01492 195.9v14.37c0 23-5.62 45.82-16.25 66.03a10 10 0 0017.7 9.31A162.43 162.43 0 00512 210.27v-24.89a10 10 0 00-10-10zM256 85.4a165.03 165.03 0 010 264.63 165.03 165.03 0 010-264.63zm-154.42 52.12c38.31 4.92 68 37.74 68 77.36h.05c-.02.95-.05 1.9-.05 2.84 0 51.35 21.3 99.86 58.06 134.55-69.81-1.79-126.06-59.14-126.06-129.38zM20 210.27V195.9a97.44 97.44 0 0161.63 30.9c1.38 53.5 31.04 100.1 74.54 125.38C80.57 349.1 20 286.63 20 210.28zm186.56 191.61c-22.85 0-45.36 6.08-65.1 17.59l-3.46 2.01v-5.5a43.72 43.72 0 0143.67-43.66h63.09a39.18 39.18 0 01-10.27 17.98 39.18 39.18 0 01-27.93 11.58zM374 421.48l-3.45-2.01a129.46 129.46 0 00-65.11-17.59 39.18 39.18 0 01-27.92-11.58 39.2 39.2 0 01-10.27-17.98h63.08A43.72 43.72 0 01374 415.98zm36.42-198.59c0 70.24-56.25 127.59-126.06 129.38a184.95 184.95 0 0058.06-134.55c0-.95-.03-1.9-.05-2.84h.05c0-39.62 29.69-72.44 68-77.36z" data-original="#000000" class="active-path" data-old_color="#000000" fill="#FFF" /><path id="XMLID_1064_" d="M458 307.25a10.01 10.01 0 00-7.07 17.07 10.06 10.06 0 007.07 2.93c2.63 0 5.2-1.07 7.07-2.93a10.05 10.05 0 000-14.14 10.05 10.05 0 00-7.07-2.93z" data-original="#000000" class="active-path" data-old_color="#000000" fill="#FFF" /></symbol><symbol id="movie" xmlns="http://www.w3.org/2000/svg" viewBox="0 0 512 512"><path d="M344 104c-.34 0-.68.01-1.02.02A31.649 31.649 0 00344 96a32.008 32.008 0 00-62.82-8.66 48.117 48.117 0 00-49.19-22.68c.01-.22.01-.44.01-.66a40 40 0 00-79.36-7.12 40.006 40.006 0 00-72.4 27.552A32 32 0 1048 139.708V200h312v-54.12A23.994 23.994 0 00344 104z" fill="#fde575" /><path d="M344 424H56L40 176h320z" fill="#2b70a8" /><path d="M360 176l-16 248H104V176z" fill="none" /><g fill="#ce3536"><path d="M104 176v248H56L40 176zM168 176h64v248h-64zM344 424h-48V176h64z" /></g><path d="M40 168h320a16 16 0 0116 16v16H24v-16a16 16 0 0116-16z" fill="#a52b2b" /><path d="M488 376v96a16 16 0 01-16 16H336l-16-32-16 32H168a16 16 0 01-16-16v-96a16 16 0 0116-16h136l16 32 16-32h136a16 16 0 0116 16z" fill="#fae8d8" /><path d="M184 392h96v64h-96z" fill="#2b70a8" /><path d="M360 392h96v64h-96z" fill="#ce3536" /><path d="M24 208h8.551l15.47 216.57A8 8 0 0056 432h88v40a24.028 24.028 0 0024 24h136a8 8 0 007.155-4.422L320 473.889l8.845 17.689A8 8 0 00336 496h136a24.028 24.028 0 0024-24v-96a24.028 24.028 0 00-24-24H356.663l9.288-144H376a8 8 0 008-8v-16a24.039 24.039 0 00-16-22.624v-12.219a32 32 0 00-16.013-52.148Q352 96.505 352 96a40 40 0 00-72.352-23.513A56.43 56.43 0 00239.334 56a48.021 48.021 0 00-90.023-14 47.988 47.988 0 00-76.79 30.915A39.993 39.993 0 0040 143.988V160a24.028 24.028 0 00-24 24v16a8 8 0 008 8zm24.592 0H96v208H63.449zM112 416V208h48v145.376A24.039 24.039 0 00144 376v40zm128-64V208h48v144zm-16 0h-48V208h48zm256 24v96a8.009 8.009 0 01-8 8H340.944l-13.789-27.578a8 8 0 00-14.31 0L299.056 480H168a8.009 8.009 0 01-8-8v-96a8.009 8.009 0 018-8h131.056l13.789 27.578a8 8 0 0014.31 0L340.944 368H472a8.009 8.009 0 018 8zm-139.371-24H336a8 8 0 00-7.155 4.422L320 374.111l-8.845-17.689A8 8 0 00304 352V208h45.917zM52.012 132.788a24 24 0 1124.161-41.469 8 8 0 0012.018-7.767A32.577 32.577 0 0188 80a32 32 0 0158.115-18.491 8 8 0 0014.4-3.217A32 32 0 01224 64v.306a8 8 0 009.322 8.243A40.326 40.326 0 01240 72a39.693 39.693 0 0134.318 19.453 8 8 0 0014.564-1.95A24.008 24.008 0 01336 96a23.681 23.681 0 01-.759 6 8 8 0 007.981 10.022c.259-.008.518-.017.778-.017a15.994 15.994 0 0110.668 27.916A8 8 0 00352 145.88V160H56v-20.29a8 8 0 00-3.988-6.922zM32 184a8.009 8.009 0 018-8h320a8.009 8.009 0 018 8v8H32z" /><path d="M280 384h-96a8 8 0 00-8 8v64a8 8 0 008 8h96a8 8 0 008-8v-64a8 8 0 00-8-8zm-8 64h-80v-48h80zM360 464h96a8 8 0 008-8v-64a8 8 0 00-8-8h-96a8 8 0 00-8 8v64a8 8 0 008 8zm8-64h80v48h-80zM224 136a32.036 32.036 0 0032-32 8 8 0 00-16 0 16 16 0 01-32 0 8 8 0 00-16 0 32.036 32.036 0 0032 32zM128 128a8 8 0 000 16 32 32 0 000-64 8 8 0 000 16 16 16 0 010 32z" /></symbol></svg>