<svg xmlns="http://www.w3.org/2000/svg"><symbol id="cat" viewBox="0 0 511.292 511.292" xml:space="preserve"><path d="M441.926 84.441c-6.009 0-10.897 4.889-10.897 10.897 0 6.01 4.889 10.898 10.897 10.898 6.009 0 10.898-4.889 10.898-10.898 0-6.009-4.889-10.897-10.898-10.897zM444.953 465.679c-6.017-3.682-12.018-6.061-16.259-7.47v-19.033c0-4.143-3.358-7.5-7.5-7.5-4.143 0-7.5 3.357-7.5 7.5v24.675c0 3.516 2.459 6.563 5.892 7.325.09.021 9.12 2.065 17.852 7.491 7.845 4.874 12.822 10.781 14.872 17.625h-47.387c-6.519 0-12.36-4.13-14.535-10.275l-43.715-123.576c-1.376-3.893-5.641-5.939-9.538-4.582-3.897 1.358-5.966 5.611-4.627 9.517 3.155 9.197 4.755 19.469 4.755 30.528 0 21.898-10.805 37.278-33.031 47.02-19.151 8.394-41.314 9.745-49.954 9.936-4.108.091-7.379 3.472-7.334 7.581.046 4.109 3.391 7.417 7.5 7.417h59.013c11.738 0 20.653 3.137 26.496 9.323 5.027 5.323 7.058 12.099 7.867 17.111H187.312c-12.34 0-23.51-4.913-33.2-14.602-1.274-1.274-2.966-2.048-4.765-2.177-48.806-3.512-108.036-48.143-121.674-123.941-.734-4.076-4.631-6.783-8.71-6.054-4.077.734-6.787 4.634-6.054 8.71 6.722 37.356 24.245 70.538 50.676 95.958 24.021 23.103 53.017 37.255 81.939 40.057 12.033 11.165 26.425 17.049 41.787 17.049h168.5c3.948 0 7.221-3.062 7.483-7.001.057-.843 1.221-20.811-12.306-35.27-7.995-8.546-19.16-13.261-33.232-14.046 16.71-9.18 27.561-22.263 32.092-38.58l26.398 74.624c4.291 12.126 15.814 20.272 28.676 20.272h55.961c4.143 0 7.5-3.358 7.5-7.5.001-15.555-8.101-28.734-23.43-38.112z"/><path d="M24.6 326.742c-2.175-58.672 23.311-92.475 45.073-110.5 27.722-22.962 57.793-28.8 59.054-29.036 4.711-.883 9.236 2.225 10.117 6.911.88 4.693-2.222 9.229-6.988 10.123-1.132.225-28.003 5.726-52.122 26.165-31.651 26.828-43.73 66.063-35.903 116.615 6.67 43.078 30.214 73.575 69.977 90.644 4.273 1.834 9.371 4.711 13.572 1.16 2.079-1.758 3.043-4.504 2.518-7.175-14.375-73.086 26.439-126.234 70.443-144.689 17.86-7.489 33.885-16.124 47.628-25.664 3.403-2.361 4.247-7.035 1.885-10.438-2.362-3.402-7.035-4.247-10.438-1.885-12.884 8.942-27.982 17.068-44.876 24.154-64.987 27.252-87.115 92.937-81.414 147.692-30.712-15.35-49.024-40.917-54.471-76.096-6.976-45.043 3.38-79.655 30.777-102.877 20.969-17.77 45.12-22.85 45.265-22.88 12.821-2.406 21.295-14.796 18.89-27.618-2.403-12.808-14.791-21.278-27.615-18.89-1.423.267-35.188 6.819-65.866 32.229-24.362 20.181-52.897 57.832-50.496 122.61.154 4.14 3.672 7.341 7.773 7.218 4.139-.153 7.37-3.634 7.217-7.773zM501.759 113.863c-.043-.517-.042-1.041-.114-1.555-.299-2.318-1.254-4.924-3.013-8.226-.047-.088-.102-.17-.152-.255-3.89-7.255-29.056-39.939-30.551-42.073-6.271-8.958-26.833-13.104-40.164-14.893V7.497c0-4.601-4.298-8.195-8.829-7.382-2.014.363-48.37 9.195-63.688 53.385-9.488 4.473-34.559 19.569-43.561 57.221-1.422 5.945-2.585 12.474-3.815 19.387-5.325 29.91-11.953 67.134-46.182 100.587-2.962 2.895-3.017 7.644-.121 10.605 2.892 2.961 7.642 3.017 10.605.121 13.712-13.401 23.399-27.427 30.453-41.312 44.197 30.503 88.549 36.539 116.658 36.539 2.104 0 4.113-.035 6.029-.095 1.753 3.338 3.428 6.245 4.741 8.519l.864 1.502c1.392 2.436 33.53 60.355-15.537 120.531-1.092 1.338-1.688 3.013-1.688 4.739v37.332c0 4.143 3.357 7.5 7.5 7.5 4.142 0 7.5-3.357 7.5-7.5v-34.697c20.395-25.87 30.064-54.357 28.745-84.707-1.21-27.836-11.455-47.067-13.497-50.64l-.897-1.56c-4.348-7.532-15.246-26.418-12.8-38.872.013-.054.025-.108.037-.162.241-1.165.591-2.277 1.086-3.312 2.427-5.078 8.5-8.413 18.05-9.911 21.836-3.425 37.755-15.963 46.035-36.26 3.327-8.155 6.901-27.962 6.306-35.192zm-192.868 72.335c2.56-6.461 4.643-12.835 6.373-19.038 14.639 13.111 46.045 33.996 99.705 36.995.244 5.882 1.712 11.865 3.707 17.492-26.535-.082-68.349-6.001-109.785-35.449zm138.202-15.701c-14.729 2.311-24.572 8.454-29.259 18.262-.08.167-.144.338-.22.506-36.411-1.748-61.32-12.434-76.02-21.332-11.783-7.133-18.991-14.229-22.234-17.814 1.267-6.094 2.307-11.922 3.279-17.382 1.191-6.689 2.316-13.009 3.636-18.527 8.972-37.52 36.37-47.654 37.493-48.054 2.292-.786 4.064-2.631 4.755-4.954 8.216-27.582 31.381-39.325 44.242-43.837v36.172c0 3.853 2.922 7.08 6.757 7.463 16.342 1.632 33.564 6.1 36.118 9.356 1.723 2.461 4.564 6.094 8.163 10.694 4.548 5.814 13.315 17.024 18.625 25.09-1.473 2.252-2.318 4.918-2.318 7.723 0 4.798 2.34 9.012 5.964 11.565-2.224 18.309-10.842 40.656-38.981 45.069z"/></symbol><symbol id="cat1" viewBox="0 0 511.292 511.292" xml:space="preserve"><path d="M448.255 177.907c46.004-7.216 46.004-55.926 46.004-64.044 0-8.118-26.159-38.787-32.473-47.808-6.314-9.02-41.52-12.519-41.52-12.519V7.498s-46.039 8.287-58.929 51.563c0 0-32.227 11.049-42.355 53.404-10.129 42.356-7.366 119.7-121.541 167.58-66.166 27.747-85.637 98.476-74.902 153.051-1.914-.724-3.84-1.495-5.772-2.324-37.229-15.982-59.274-44.546-65.523-84.899-7.401-47.798 3.816-84.722 33.341-109.746 22.741-19.273 48.532-24.491 48.73-24.529 8.771-1.646 14.548-10.091 12.902-18.863-1.646-8.771-10.09-14.538-18.863-12.902-1.345.252-33.279 6.461-62.463 30.633-27.221 22.545-56.484 65.085-45.587 140.352 11.426 78.921 72.387 132.067 129.505 136.176 10.513 10.512 23.536 16.797 38.502 16.797h168.501s2.762-41.434-42.355-41.434h-59.013c20.372-.451 90.319-6.238 90.319-64.454 0-12.743-1.965-23.649-5.16-32.962l43.715 123.576c3.238 9.155 11.895 15.274 21.605 15.274h55.961c0-31.32-39.689-39.941-39.689-39.941v-92.007c47.808-58.632 23.453-116.362 16.237-128.991-7.217-12.627-35.18-57.729 10.823-64.945zM339.471 364.569v.002c.001-.001.001-.001 0-.002z" fill="#ffbb64"/><g fill="#ffad47"><path d="M313.457 462.357h-27c45.117 0 42.355 41.434 42.355 41.434h27c0 .001 2.762-41.434-42.355-41.434zM421.194 463.851v-92.007c47.808-58.632 23.453-116.362 16.237-128.991-7.216-12.628-35.179-57.73 10.824-64.946 8.064-1.265 14.71-3.808 20.195-7.181-13.319 3.773-28.914 6.325-47.195 7.181-46.515 2.178-18.041 52.318-10.824 64.946 7.216 12.629 31.571 70.359-16.237 128.991v90.766c0 7.275 5.342 13.532 12.558 14.457 11.628 1.491 27.132 7.15 27.132 26.725h27c0-31.32-39.69-39.941-39.69-39.941z"/></g><path d="M429.828 228.846c-4.666-9.68-8.957-21.792-6.877-31.883-80.444-1.785-111.684-44.829-111.685-44.83-2.555 11.637-6.024 24.04-11.548 36.643l.001.001c49.935 37.687 100.829 41.767 130.109 40.069z" fill="#ff3d43"/><path d="M422.951 196.963c-9.787-.217-18.84-1.049-27.203-2.336-2.146 10.31 2.359 23.478 7.161 33.867 10.172.836 19.285.795 26.919.352-4.666-9.679-8.957-21.791-6.877-31.883z" fill="#d72e2e"/><path d="M441.926 84.441c-6.009 0-10.897 4.889-10.897 10.897 0 6.01 4.889 10.898 10.897 10.898 6.009 0 10.898-4.889 10.898-10.898 0-6.009-4.889-10.897-10.898-10.897zM444.953 465.679c-6.017-3.682-12.018-6.061-16.259-7.47v-19.033c0-4.143-3.358-7.5-7.5-7.5-4.143 0-7.5 3.357-7.5 7.5v24.675c0 3.516 2.459 6.563 5.892 7.325.09.021 9.12 2.065 17.852 7.491 7.845 4.874 12.822 10.781 14.872 17.625h-47.387c-6.519 0-12.36-4.13-14.535-10.275l-43.715-123.576c-1.376-3.893-5.641-5.939-9.538-4.582-3.897 1.358-5.966 5.611-4.627 9.517 3.155 9.197 4.755 19.469 4.755 30.528 0 21.898-10.805 37.278-33.031 47.02-19.151 8.394-41.314 9.745-49.954 9.936-4.108.091-7.379 3.472-7.334 7.581.046 4.109 3.391 7.417 7.5 7.417h59.013c11.738 0 20.653 3.137 26.496 9.323 5.027 5.323 7.058 12.099 7.867 17.111H187.312c-12.34 0-23.51-4.913-33.2-14.602-1.274-1.274-2.966-2.048-4.765-2.177-48.806-3.512-108.036-48.143-121.674-123.941-.734-4.076-4.631-6.783-8.71-6.054-4.077.734-6.787 4.634-6.054 8.71 6.722 37.356 24.245 70.538 50.676 95.958 24.021 23.103 53.017 37.255 81.939 40.057 12.033 11.165 26.425 17.049 41.787 17.049h168.5c3.948 0 7.221-3.062 7.483-7.001.057-.843 1.221-20.811-12.306-35.27-7.995-8.546-19.16-13.261-33.232-14.046 16.71-9.18 27.561-22.263 32.092-38.58l26.398 74.624c4.291 12.126 15.814 20.272 28.676 20.272h55.961c4.143 0 7.5-3.358 7.5-7.5.001-15.555-8.101-28.734-23.43-38.112z"/><path d="M24.6 326.742c-2.175-58.672 23.311-92.475 45.073-110.5 27.722-22.962 57.793-28.8 59.054-29.036 4.711-.883 9.236 2.225 10.117 6.911.88 4.693-2.222 9.229-6.988 10.123-1.132.225-28.003 5.726-52.122 26.165-31.651 26.828-43.73 66.063-35.903 116.615 6.67 43.078 30.214 73.575 69.977 90.644 4.273 1.834 9.371 4.711 13.572 1.16 2.079-1.758 3.043-4.504 2.518-7.175-14.375-73.086 26.439-126.234 70.443-144.689 17.86-7.489 33.885-16.124 47.628-25.664 3.403-2.361 4.247-7.035 1.885-10.438-2.362-3.402-7.035-4.247-10.438-1.885-12.884 8.942-27.982 17.068-44.876 24.154-64.987 27.252-87.115 92.937-81.414 147.692-30.712-15.35-49.024-40.917-54.471-76.096-6.976-45.043 3.38-79.655 30.777-102.877 20.969-17.77 45.12-22.85 45.265-22.88 12.821-2.406 21.295-14.796 18.89-27.618-2.403-12.808-14.791-21.278-27.615-18.89-1.423.267-35.188 6.819-65.866 32.229-24.362 20.181-52.897 57.832-50.496 122.61.154 4.14 3.672 7.341 7.773 7.218 4.139-.153 7.37-3.634 7.217-7.773zM501.759 113.863c-.043-.517-.042-1.041-.114-1.555-.299-2.318-1.254-4.924-3.013-8.226-.047-.088-.102-.17-.152-.255-3.89-7.255-29.056-39.939-30.551-42.073-6.271-8.958-26.833-13.104-40.164-14.893V7.497c0-4.601-4.298-8.195-8.829-7.382-2.014.363-48.37 9.195-63.688 53.385-9.488 4.473-34.559 19.569-43.561 57.221-1.422 5.945-2.585 12.474-3.815 19.387-5.325 29.91-11.953 67.134-46.182 100.587-2.962 2.895-3.017 7.644-.121 10.605 2.892 2.961 7.642 3.017 10.605.121 13.712-13.401 23.399-27.427 30.453-41.312 44.197 30.503 88.549 36.539 116.658 36.539 2.104 0 4.113-.035 6.029-.095 1.753 3.338 3.428 6.245 4.741 8.519l.864 1.502c1.392 2.436 33.53 60.355-15.537 120.531-1.092 1.338-1.688 3.013-1.688 4.739v37.332c0 4.143 3.357 7.5 7.5 7.5 4.142 0 7.5-3.357 7.5-7.5v-34.697c20.395-25.87 30.064-54.357 28.745-84.707-1.21-27.836-11.455-47.067-13.497-50.64l-.897-1.56c-4.348-7.532-15.246-26.418-12.8-38.872.013-.054.025-.108.037-.162.241-1.165.591-2.277 1.086-3.312 2.427-5.078 8.5-8.413 18.05-9.911 21.836-3.425 37.755-15.963 46.035-36.26 3.327-8.155 6.901-27.962 6.306-35.192zm-192.868 72.335c2.56-6.461 4.643-12.835 6.373-19.038 14.639 13.111 46.045 33.996 99.705 36.995.244 5.882 1.712 11.865 3.707 17.492-26.535-.082-68.349-6.001-109.785-35.449zm138.202-15.701c-14.729 2.311-24.572 8.454-29.259 18.262-.08.167-.144.338-.22.506-36.411-1.748-61.32-12.434-76.02-21.332-11.783-7.133-18.991-14.229-22.234-17.814 1.267-6.094 2.307-11.922 3.279-17.382 1.191-6.689 2.316-13.009 3.636-18.527 8.972-37.52 36.37-47.654 37.493-48.054 2.292-.786 4.064-2.631 4.755-4.954 8.216-27.582 31.381-39.325 44.242-43.837v36.172c0 3.853 2.922 7.08 6.757 7.463 16.342 1.632 33.564 6.1 36.118 9.356 1.723 2.461 4.564 6.094 8.163 10.694 4.548 5.814 13.315 17.024 18.625 25.09-1.473 2.252-2.318 4.918-2.318 7.723 0 4.798 2.34 9.012 5.964 11.565-2.224 18.309-10.842 40.656-38.981 45.069z"/></symbol><symbol id="bear" viewBox="0 0 128 128"><path d="M88.011 58.6a4.167 4.167 0 10-4.167-4.167 4.171 4.171 0 004.167 4.167zM39.99 58.6a4.167 4.167 0 10-4.167-4.167A4.171 4.171 0 0039.99 58.6z"/><path d="M128 22.075a22.066 22.066 0 00-42.893-7.3 69.755 69.755 0 00-42.214 0A22.063 22.063 0 109.079 39.886 54.025 54.025 0 000 69.75C0 101.868 28.71 128 64 128s64-26.129 64-58.247a54.03 54.03 0 00-9.079-29.865A21.892 21.892 0 00128 22.075zM105.922 3.5a18.555 18.555 0 0110.988 33.52 59.654 59.654 0 00-4.185-4.974A12.074 12.074 0 1094.389 18.5q-2.9-1.429-5.975-2.583A18.557 18.557 0 01105.922 3.5zm4.271 26a63.665 63.665 0 00-12.625-9.313 8.571 8.571 0 0116.932 1.89 8.555 8.555 0 01-4.307 7.423zM3.5 22.075a18.566 18.566 0 0136.086-6.158q-3.069 1.156-5.975 2.583a12.075 12.075 0 10-18.335 13.546 59.327 59.327 0 00-4.186 4.975A18.423 18.423 0 013.5 22.075zM17.808 29.5a8.567 8.567 0 014.27-16 8.648 8.648 0 018.354 6.688A63.658 63.658 0 0017.808 29.5zM64 124.5c-33.36 0-60.5-24.562-60.5-54.75S30.64 15 64 15s60.5 24.56 60.5 54.747S97.359 124.5 64 124.5z"/><path d="M74.359 67.57a9.655 9.655 0 00-8.818-5.752h-3.082a9.654 9.654 0 00-8.817 5.752c-13.6 2.421-20.517 10.286-20.517 23.424 0 16.1 10.388 24.27 30.875 24.27s30.875-8.166 30.875-24.27c0-13.138-6.914-21.003-20.516-23.424zm-11.9-2.252h3.082A6.145 6.145 0 0169.2 76.4l-1.541 1.145a6.133 6.133 0 01-3.585 1.213h-.154a6.133 6.133 0 01-3.587-1.214L58.8 76.4a6.145 6.145 0 013.663-11.079zM64 111.764c-24.537 0-27.375-11.854-27.375-20.77 0-11.036 5.164-17.35 16.2-19.717 0 .063-.009.124-.009.186a9.686 9.686 0 003.9 7.745l1.541 1.144a9.707 9.707 0 003.293 1.587 15.25 15.25 0 01-15.777 9.1 1.75 1.75 0 10-.409 3.476 19.07 19.07 0 002.2.129A18.751 18.751 0 0064 84.885a18.75 18.75 0 0016.438 9.76 19.07 19.07 0 002.2-.129 1.75 1.75 0 10-.409-3.476 15.245 15.245 0 01-15.778-9.1 9.712 9.712 0 003.294-1.587l1.541-1.144a9.69 9.69 0 003.9-7.745c0-.062-.008-.123-.009-.186 11.034 2.367 16.2 8.681 16.2 19.717-.002 8.915-2.84 20.769-27.377 20.769z"/></symbol><symbol id="bear1" viewBox="0 0 128 128"><ellipse cx="64" cy="69.75" rx="62.25" ry="56.497" fill="#f5f5f5"/><g fill="#3c3a41"><path d="M88.011 50.261a4.167 4.167 0 104.166 4.167 4.171 4.171 0 00-4.166-4.167zM39.99 50.261a4.167 4.167 0 104.166 4.167 4.171 4.171 0 00-4.166-4.167z"/></g><path d="M11.5 39.41a61.549 61.549 0 0130.239-22.422A20.316 20.316 0 1011.5 39.41z" fill="#e0e0e0"/><path d="M18.091 31.6a61.788 61.788 0 0114.266-10.5 10.327 10.327 0 10-14.266 10.5z" fill="#3c3a41"/><path d="M116.5 39.41a61.549 61.549 0 00-30.239-22.422A20.316 20.316 0 11116.5 39.41z" fill="#e0e0e0"/><path d="M109.909 31.6a61.788 61.788 0 00-14.266-10.5 10.327 10.327 0 1114.266 10.5z" fill="#3c3a41"/><path d="M73.08 69.113a7.9 7.9 0 01-2.833 8.687l-1.541 1.144a7.893 7.893 0 01-9.412 0L57.753 77.8a7.9 7.9 0 01-2.833-8.689c-15.527 2.395-20.045 11.281-20.045 21.883 0 12.437 6.2 22.52 29.125 22.52s29.125-10.083 29.125-22.52c0-10.602-4.518-19.488-20.045-21.881z" fill="#e0e0e0"/><path d="M84.176 92.574a1.753 1.753 0 00-1.943-1.534A15.254 15.254 0 0166.2 81.357l-.416-1.084a7.835 7.835 0 002.919-1.327l1.544-1.146a7.895 7.895 0 00-4.706-14.234h-3.082A7.895 7.895 0 0057.753 77.8l1.541 1.144a7.833 7.833 0 002.92 1.327l-.414 1.086a15.262 15.262 0 01-16.03 9.683 1.75 1.75 0 10-.409 3.476 19.07 19.07 0 002.2.129A18.751 18.751 0 0064 84.885a18.75 18.75 0 0016.438 9.76 19.07 19.07 0 002.2-.129 1.75 1.75 0 001.538-1.942z" fill="#3c3a41"/><g><path d="M123.076 87.694a1.747 1.747 0 00-2.28.962 52.31 52.31 0 01-3.919 7.718 1.75 1.75 0 002.978 1.837 55.633 55.633 0 004.183-8.237 1.749 1.749 0 00-.962-2.28zM92.177 54.431a4.167 4.167 0 10-4.166 4.169 4.171 4.171 0 004.166-4.169zM39.99 58.6a4.167 4.167 0 10-4.167-4.167A4.171 4.171 0 0039.99 58.6z"/><path d="M128 22.078a22.066 22.066 0 00-42.893-7.3 69.755 69.755 0 00-42.214 0 22.063 22.063 0 10-33.814 25.11A54.028 54.028 0 000 69.753C0 101.871 28.71 128 64 128a67.5 67.5 0 0043.063-15.155 1.75 1.75 0 10-2.232-2.695A64 64 0 0164 124.5c-33.36 0-60.5-24.56-60.5-54.747S30.64 15.006 64 15.006s60.5 24.559 60.5 54.747a1.75 1.75 0 003.5 0 54.028 54.028 0 00-9.079-29.865A21.893 21.893 0 00128 22.078zm-124.5 0a18.566 18.566 0 0136.086-6.158q-3.069 1.156-5.975 2.583a12.075 12.075 0 10-18.335 13.546 59.474 59.474 0 00-4.186 4.974A18.418 18.418 0 013.5 22.078zM17.808 29.5a8.567 8.567 0 014.27-16 8.648 8.648 0 018.354 6.688A63.693 63.693 0 0017.808 29.5zm88.114-26a18.555 18.555 0 0110.988 33.523 59.654 59.654 0 00-4.185-4.974A12.074 12.074 0 1094.389 18.5q-2.9-1.429-5.975-2.583A18.557 18.557 0 01105.922 3.5zm-8.354 16.688a8.571 8.571 0 0116.932 1.89 8.555 8.555 0 01-4.307 7.423 63.665 63.665 0 00-12.625-9.313z"/><path d="M64 111.767c-24.537 0-27.375-11.854-27.375-20.77a1.75 1.75 0 00-3.5 0c0 16.1 10.388 24.27 30.875 24.27S94.875 107.1 94.875 91c0-13.138-6.914-21-20.516-23.424a9.655 9.655 0 00-8.818-5.752h-3.082a9.653 9.653 0 00-8.811 5.739c-8.416 1.494-14.319 5.078-17.538 10.674a1.75 1.75 0 103.033 1.745c2.539-4.413 7.032-7.266 13.68-8.694 0 .061-.009.12-.009.181a9.684 9.684 0 003.9 7.744l1.541 1.145a9.707 9.707 0 003.293 1.587 15.245 15.245 0 01-15.777 9.1 1.75 1.75 0 00-.409 3.477 19.07 19.07 0 002.2.129A18.751 18.751 0 0064 84.888a18.75 18.75 0 0016.438 9.76 19.07 19.07 0 002.2-.129 1.75 1.75 0 00-.409-3.477 15.241 15.241 0 01-15.778-9.1 9.7 9.7 0 003.294-1.587l1.545-1.145a9.687 9.687 0 003.9-7.744c0-.062-.008-.123-.009-.186 11.034 2.367 16.2 8.681 16.2 19.717-.006 8.916-2.844 20.77-27.381 20.77zM69.2 76.4l-1.541 1.144a6.12 6.12 0 01-3.588 1.214h-.148a6.128 6.128 0 01-3.59-1.214L58.8 76.4a6.145 6.145 0 013.663-11.079h3.082A6.145 6.145 0 0169.2 76.4z"/></g></symbol><symbol id="bear2" viewBox="0 0 128 128"><ellipse cx="64" cy="69.8" fill="#f5f5f5" rx="62.3" ry="56.5"/><g fill="#3c3a41"><path d="M88 50.3c-2.3 0-4.2 1.9-4.2 4.2s1.9 4.2 4.2 4.2 4.2-1.9 4.2-4.2c0-2.4-1.9-4.2-4.2-4.2zM40 50.3c-2.3 0-4.2 1.9-4.2 4.2s1.9 4.2 4.2 4.2 4.2-1.9 4.2-4.2c0-2.4-1.9-4.2-4.2-4.2z"/></g><path d="M11.5 39.4C19 29 29.6 21.1 41.7 17 38.9 6.1 27.9-.4 17 2.4S-.4 16.3 2.4 27.1c1.3 5.2 4.6 9.6 9.1 12.3z" fill="#e0e0e0"/><path d="M18.1 31.6c4.2-4.2 9-7.7 14.3-10.5-.5-5.7-5.6-9.8-11.3-9.3s-9.8 5.6-9.3 11.3c.4 3.7 2.8 7 6.3 8.5z" fill="#3c3a41"/><path d="M116.5 39.4C109 29 98.4 21.1 86.3 17 89.1 6.1 100.1-.4 111 2.4s17.4 13.9 14.6 24.7c-1.3 5.2-4.6 9.6-9.1 12.3z" fill="#e0e0e0"/><path d="M109.9 31.6c-4.2-4.2-9-7.7-14.3-10.5.5-5.7 5.6-9.8 11.3-9.3s9.8 5.6 9.3 11.3c-.4 3.7-2.8 7-6.3 8.5z" fill="#3c3a41"/><path d="M73.1 69.1H54.9c-15.5 2.4-20 11.3-20 21.9 0 12.4 6.2 22.5 29.1 22.5S93.1 103.4 93.1 91c0-10.6-4.5-19.5-20-21.9z" fill="#e0e0e0"/><path d="M84.2 92.6c-.1-1-1-1.6-1.9-1.5-6.9.8-13.5-3.2-16-9.7l-.4-1.1c1.1-.2 2-.7 2.9-1.3l1.5-1.1c3.5-2.6 4.2-7.5 1.6-11-1.5-2-3.8-3.2-6.3-3.2h-3.1c-4.4 0-7.9 3.5-7.9 7.9 0 2.5 1.2 4.8 3.2 6.3l1.5 1.1c.9.6 1.9 1.1 2.9 1.3l-.4 1.1c-2.5 6.5-9.1 10.5-16 9.7-1-.1-1.8.6-1.9 1.5s.6 1.8 1.5 1.9c.7.1 1.5.1 2.2.1 6.9 0 13.2-3.7 16.4-9.8 3.3 6 9.6 9.8 16.4 9.8.7 0 1.5 0 2.2-.1 1-.1 1.7-1 1.6-1.9z" fill="#3c3a41"/></symbol></svg>